G04 #@! TF.GenerationSoftware,KiCad,Pcbnew,(5.1.6)-1*
G04 #@! TF.CreationDate,2020-06-02T23:24:11+04:00*
G04 #@! TF.ProjectId,Berfboard 2.0-psupply,42657266-626f-4617-9264-20322e302d70,rev?*
G04 #@! TF.SameCoordinates,Original*
G04 #@! TF.FileFunction,Legend,Top*
G04 #@! TF.FilePolarity,Positive*
%FSLAX46Y46*%
G04 Gerber Fmt 4.6, Leading zero omitted, Abs format (unit mm)*
G04 Created by KiCad (PCBNEW (5.1.6)-1) date 2020-06-02 23:24:11*
%MOMM*%
%LPD*%
G01*
G04 APERTURE LIST*
%ADD10C,0.120000*%
%ADD11C,0.150000*%
%ADD12C,0.100000*%
G04 APERTURE END LIST*
D10*
X183705500Y-41148000D02*
X183705500Y-43675300D01*
X99504500Y-86664800D02*
X175818800Y-86728300D01*
X175831500Y-43738800D02*
X99555300Y-43751500D01*
X178000660Y-44952920D02*
X178003200Y-42481500D01*
X176466500Y-44937680D02*
X177965100Y-44950380D01*
X176479200Y-43865800D02*
X176469040Y-44937680D01*
X176479200Y-40424100D02*
X176479200Y-43865800D01*
X178003200Y-40424100D02*
X176479200Y-40424100D01*
X178003200Y-42494200D02*
X178003200Y-40424100D01*
X178358800Y-42494200D02*
X178003200Y-42494200D01*
D11*
X177118971Y-40600880D02*
X177118971Y-41362784D01*
X176738019Y-40981832D02*
X177499923Y-40981832D01*
X177738019Y-41743737D02*
X177738019Y-42362784D01*
X177357066Y-42029451D01*
X177357066Y-42172308D01*
X177309447Y-42267546D01*
X177261828Y-42315165D01*
X177166590Y-42362784D01*
X176928495Y-42362784D01*
X176833257Y-42315165D01*
X176785638Y-42267546D01*
X176738019Y-42172308D01*
X176738019Y-41886594D01*
X176785638Y-41791356D01*
X176833257Y-41743737D01*
X176833257Y-42791356D02*
X176785638Y-42838975D01*
X176738019Y-42791356D01*
X176785638Y-42743737D01*
X176833257Y-42791356D01*
X176738019Y-42791356D01*
X177738019Y-43172308D02*
X177738019Y-43791356D01*
X177357066Y-43458022D01*
X177357066Y-43600880D01*
X177309447Y-43696118D01*
X177261828Y-43743737D01*
X177166590Y-43791356D01*
X176928495Y-43791356D01*
X176833257Y-43743737D01*
X176785638Y-43696118D01*
X176738019Y-43600880D01*
X176738019Y-43315165D01*
X176785638Y-43219927D01*
X176833257Y-43172308D01*
X177738019Y-44077070D02*
X176738019Y-44410403D01*
X177738019Y-44743737D01*
D10*
X189496700Y-46659800D02*
X189496700Y-45135800D01*
X192661540Y-46647100D02*
X189496700Y-46659800D01*
X192659000Y-45224700D02*
X192659000Y-46647100D01*
X189496700Y-45224700D02*
X192659000Y-45217080D01*
X189496700Y-42291000D02*
X189496700Y-45224700D01*
X188645800Y-42291000D02*
X189496700Y-42291000D01*
X188645800Y-42430700D02*
X188645800Y-43738800D01*
X183197500Y-41148000D02*
X183197500Y-43675300D01*
D11*
X189684185Y-46037808D02*
X190446090Y-46037808D01*
X190065138Y-46418760D02*
X190065138Y-45656856D01*
X191398471Y-45418760D02*
X190922280Y-45418760D01*
X190874661Y-45894951D01*
X190922280Y-45847332D01*
X191017519Y-45799713D01*
X191255614Y-45799713D01*
X191350852Y-45847332D01*
X191398471Y-45894951D01*
X191446090Y-45990189D01*
X191446090Y-46228284D01*
X191398471Y-46323522D01*
X191350852Y-46371141D01*
X191255614Y-46418760D01*
X191017519Y-46418760D01*
X190922280Y-46371141D01*
X190874661Y-46323522D01*
X191731804Y-45418760D02*
X192065138Y-46418760D01*
X192398471Y-45418760D01*
X181392747Y-47175728D02*
X182154652Y-47175728D01*
X183154652Y-46604300D02*
X183059414Y-46556680D01*
X182916557Y-46556680D01*
X182773700Y-46604300D01*
X182678461Y-46699538D01*
X182630842Y-46794776D01*
X182583223Y-46985252D01*
X182583223Y-47128109D01*
X182630842Y-47318585D01*
X182678461Y-47413823D01*
X182773700Y-47509061D01*
X182916557Y-47556680D01*
X183011795Y-47556680D01*
X183154652Y-47509061D01*
X183202271Y-47461442D01*
X183202271Y-47128109D01*
X183011795Y-47128109D01*
X184202271Y-47556680D02*
X183868938Y-47080490D01*
X183630842Y-47556680D02*
X183630842Y-46556680D01*
X184011795Y-46556680D01*
X184107033Y-46604300D01*
X184154652Y-46651919D01*
X184202271Y-46747157D01*
X184202271Y-46890014D01*
X184154652Y-46985252D01*
X184107033Y-47032871D01*
X184011795Y-47080490D01*
X183630842Y-47080490D01*
X184630842Y-47556680D02*
X184630842Y-46556680D01*
X184868938Y-46556680D01*
X185011795Y-46604300D01*
X185107033Y-46699538D01*
X185154652Y-46794776D01*
X185202271Y-46985252D01*
X185202271Y-47128109D01*
X185154652Y-47318585D01*
X185107033Y-47413823D01*
X185011795Y-47509061D01*
X184868938Y-47556680D01*
X184630842Y-47556680D01*
D12*
G36*
X188633100Y-43726100D02*
G01*
X188620400Y-46291500D01*
X178384200Y-46278800D01*
X178371500Y-43713400D01*
X188633100Y-43726100D01*
G37*
X188633100Y-43726100D02*
X188620400Y-46291500D01*
X178384200Y-46278800D01*
X178371500Y-43713400D01*
X188633100Y-43726100D01*
D11*
X95983538Y-45201800D02*
X97983538Y-45201800D01*
X95983538Y-46058942D02*
X97031157Y-46058942D01*
X97221633Y-45963704D01*
X97316871Y-45773228D01*
X97316871Y-45487514D01*
X97221633Y-45297038D01*
X97126395Y-45201800D01*
X97316871Y-46725609D02*
X97316871Y-47487514D01*
X97983538Y-47011323D02*
X96269252Y-47011323D01*
X96078776Y-47106561D01*
X95983538Y-47297038D01*
X95983538Y-47487514D01*
X97316871Y-47868466D02*
X97316871Y-48630371D01*
X97983538Y-48154180D02*
X96269252Y-48154180D01*
X96078776Y-48249419D01*
X95983538Y-48439895D01*
X95983538Y-48630371D01*
X97316871Y-49297038D02*
X95316871Y-49297038D01*
X97221633Y-49297038D02*
X97316871Y-49487514D01*
X97316871Y-49868466D01*
X97221633Y-50058942D01*
X97126395Y-50154180D01*
X96935919Y-50249419D01*
X96364490Y-50249419D01*
X96174014Y-50154180D01*
X96078776Y-50058942D01*
X95983538Y-49868466D01*
X95983538Y-49487514D01*
X96078776Y-49297038D01*
X96078776Y-51011323D02*
X95983538Y-51201800D01*
X95983538Y-51582752D01*
X96078776Y-51773228D01*
X96269252Y-51868466D01*
X96364490Y-51868466D01*
X96554966Y-51773228D01*
X96650204Y-51582752D01*
X96650204Y-51297038D01*
X96745442Y-51106561D01*
X96935919Y-51011323D01*
X97031157Y-51011323D01*
X97221633Y-51106561D01*
X97316871Y-51297038D01*
X97316871Y-51582752D01*
X97221633Y-51773228D01*
X96174014Y-52725609D02*
X96078776Y-52820847D01*
X95983538Y-52725609D01*
X96078776Y-52630371D01*
X96174014Y-52725609D01*
X95983538Y-52725609D01*
X97221633Y-52725609D02*
X97126395Y-52820847D01*
X97031157Y-52725609D01*
X97126395Y-52630371D01*
X97221633Y-52725609D01*
X97031157Y-52725609D01*
X98078776Y-55106561D02*
X95507347Y-53392276D01*
X98078776Y-57201800D02*
X95507347Y-55487514D01*
X97316871Y-57582752D02*
X97316871Y-58344657D01*
X97983538Y-57868466D02*
X96269252Y-57868466D01*
X96078776Y-57963704D01*
X95983538Y-58154180D01*
X95983538Y-58344657D01*
X96078776Y-59773228D02*
X95983538Y-59582752D01*
X95983538Y-59201800D01*
X96078776Y-59011323D01*
X96269252Y-58916085D01*
X97031157Y-58916085D01*
X97221633Y-59011323D01*
X97316871Y-59201800D01*
X97316871Y-59582752D01*
X97221633Y-59773228D01*
X97031157Y-59868466D01*
X96840680Y-59868466D01*
X96650204Y-58916085D01*
X96078776Y-61582752D02*
X95983538Y-61392276D01*
X95983538Y-61011323D01*
X96078776Y-60820847D01*
X96174014Y-60725609D01*
X96364490Y-60630371D01*
X96935919Y-60630371D01*
X97126395Y-60725609D01*
X97221633Y-60820847D01*
X97316871Y-61011323D01*
X97316871Y-61392276D01*
X97221633Y-61582752D01*
X95983538Y-62439895D02*
X97983538Y-62439895D01*
X96745442Y-62630371D02*
X95983538Y-63201800D01*
X97316871Y-63201800D02*
X96554966Y-62439895D01*
X97316871Y-64058942D02*
X95983538Y-64058942D01*
X97126395Y-64058942D02*
X97221633Y-64154180D01*
X97316871Y-64344657D01*
X97316871Y-64630371D01*
X97221633Y-64820847D01*
X97031157Y-64916085D01*
X95983538Y-64916085D01*
X95983538Y-66154180D02*
X96078776Y-65963704D01*
X96174014Y-65868466D01*
X96364490Y-65773228D01*
X96935919Y-65773228D01*
X97126395Y-65868466D01*
X97221633Y-65963704D01*
X97316871Y-66154180D01*
X97316871Y-66439895D01*
X97221633Y-66630371D01*
X97126395Y-66725609D01*
X96935919Y-66820847D01*
X96364490Y-66820847D01*
X96174014Y-66725609D01*
X96078776Y-66630371D01*
X95983538Y-66439895D01*
X95983538Y-66154180D01*
X95983538Y-67963704D02*
X96078776Y-67773228D01*
X96269252Y-67677990D01*
X97983538Y-67677990D01*
X95983538Y-69011323D02*
X96078776Y-68820847D01*
X96174014Y-68725609D01*
X96364490Y-68630371D01*
X96935919Y-68630371D01*
X97126395Y-68725609D01*
X97221633Y-68820847D01*
X97316871Y-69011323D01*
X97316871Y-69297038D01*
X97221633Y-69487514D01*
X97126395Y-69582752D01*
X96935919Y-69677990D01*
X96364490Y-69677990D01*
X96174014Y-69582752D01*
X96078776Y-69487514D01*
X95983538Y-69297038D01*
X95983538Y-69011323D01*
X97316871Y-71392276D02*
X95697823Y-71392276D01*
X95507347Y-71297038D01*
X95412109Y-71201800D01*
X95316871Y-71011323D01*
X95316871Y-70725609D01*
X95412109Y-70535133D01*
X96078776Y-71392276D02*
X95983538Y-71201800D01*
X95983538Y-70820847D01*
X96078776Y-70630371D01*
X96174014Y-70535133D01*
X96364490Y-70439895D01*
X96935919Y-70439895D01*
X97126395Y-70535133D01*
X97221633Y-70630371D01*
X97316871Y-70820847D01*
X97316871Y-71201800D01*
X97221633Y-71392276D01*
X97316871Y-73201800D02*
X95697823Y-73201800D01*
X95507347Y-73106561D01*
X95412109Y-73011323D01*
X95316871Y-72820847D01*
X95316871Y-72535133D01*
X95412109Y-72344657D01*
X96078776Y-73201800D02*
X95983538Y-73011323D01*
X95983538Y-72630371D01*
X96078776Y-72439895D01*
X96174014Y-72344657D01*
X96364490Y-72249419D01*
X96935919Y-72249419D01*
X97126395Y-72344657D01*
X97221633Y-72439895D01*
X97316871Y-72630371D01*
X97316871Y-73011323D01*
X97221633Y-73201800D01*
X96174014Y-74154180D02*
X96078776Y-74249419D01*
X95983538Y-74154180D01*
X96078776Y-74058942D01*
X96174014Y-74154180D01*
X95983538Y-74154180D01*
X97316871Y-74916085D02*
X95983538Y-75297038D01*
X96935919Y-75677990D01*
X95983538Y-76058942D01*
X97316871Y-76439895D01*
X96078776Y-77963704D02*
X95983538Y-77773228D01*
X95983538Y-77392276D01*
X96078776Y-77201800D01*
X96269252Y-77106561D01*
X97031157Y-77106561D01*
X97221633Y-77201800D01*
X97316871Y-77392276D01*
X97316871Y-77773228D01*
X97221633Y-77963704D01*
X97031157Y-78058942D01*
X96840680Y-78058942D01*
X96650204Y-77106561D01*
X95983538Y-78916085D02*
X97983538Y-78916085D01*
X97221633Y-78916085D02*
X97316871Y-79106561D01*
X97316871Y-79487514D01*
X97221633Y-79677990D01*
X97126395Y-79773228D01*
X96935919Y-79868466D01*
X96364490Y-79868466D01*
X96174014Y-79773228D01*
X96078776Y-79677990D01*
X95983538Y-79487514D01*
X95983538Y-79106561D01*
X96078776Y-78916085D01*
X96078776Y-80630371D02*
X95983538Y-80820847D01*
X95983538Y-81201800D01*
X96078776Y-81392276D01*
X96269252Y-81487514D01*
X96364490Y-81487514D01*
X96554966Y-81392276D01*
X96650204Y-81201800D01*
X96650204Y-80916085D01*
X96745442Y-80725609D01*
X96935919Y-80630371D01*
X97031157Y-80630371D01*
X97221633Y-80725609D01*
X97316871Y-80916085D01*
X97316871Y-81201800D01*
X97221633Y-81392276D01*
X95983538Y-82344657D02*
X97316871Y-82344657D01*
X97983538Y-82344657D02*
X97888300Y-82249419D01*
X97793061Y-82344657D01*
X97888300Y-82439895D01*
X97983538Y-82344657D01*
X97793061Y-82344657D01*
X97316871Y-83011323D02*
X97316871Y-83773228D01*
X97983538Y-83297038D02*
X96269252Y-83297038D01*
X96078776Y-83392276D01*
X95983538Y-83582752D01*
X95983538Y-83773228D01*
X96078776Y-85201800D02*
X95983538Y-85011323D01*
X95983538Y-84630371D01*
X96078776Y-84439895D01*
X96269252Y-84344657D01*
X97031157Y-84344657D01*
X97221633Y-84439895D01*
X97316871Y-84630371D01*
X97316871Y-85011323D01*
X97221633Y-85201800D01*
X97031157Y-85297038D01*
X96840680Y-85297038D01*
X96650204Y-84344657D01*
X177317091Y-85456947D02*
X177317091Y-86218852D01*
X177888520Y-87218852D02*
X177936139Y-87123614D01*
X177936139Y-86980757D01*
X177888520Y-86837900D01*
X177793281Y-86742661D01*
X177698043Y-86695042D01*
X177507567Y-86647423D01*
X177364710Y-86647423D01*
X177174234Y-86695042D01*
X177078996Y-86742661D01*
X176983758Y-86837900D01*
X176936139Y-86980757D01*
X176936139Y-87075995D01*
X176983758Y-87218852D01*
X177031377Y-87266471D01*
X177364710Y-87266471D01*
X177364710Y-87075995D01*
X176936139Y-88266471D02*
X177412329Y-87933138D01*
X176936139Y-87695042D02*
X177936139Y-87695042D01*
X177936139Y-88075995D01*
X177888520Y-88171233D01*
X177840900Y-88218852D01*
X177745662Y-88266471D01*
X177602805Y-88266471D01*
X177507567Y-88218852D01*
X177459948Y-88171233D01*
X177412329Y-88075995D01*
X177412329Y-87695042D01*
X176936139Y-88695042D02*
X177936139Y-88695042D01*
X177936139Y-88933138D01*
X177888520Y-89075995D01*
X177793281Y-89171233D01*
X177698043Y-89218852D01*
X177507567Y-89266471D01*
X177364710Y-89266471D01*
X177174234Y-89218852D01*
X177078996Y-89171233D01*
X176983758Y-89075995D01*
X176936139Y-88933138D01*
X176936139Y-88695042D01*
D12*
G36*
X188633100Y-89230200D02*
G01*
X178409600Y-89217500D01*
X178396900Y-86614000D01*
X188633100Y-86614000D01*
X188633100Y-89230200D01*
G37*
X188633100Y-89230200D02*
X178409600Y-89217500D01*
X178396900Y-86614000D01*
X188633100Y-86614000D01*
X188633100Y-89230200D01*
D10*
X186042300Y-86664800D02*
X183603900Y-86664800D01*
X183603900Y-84048600D02*
X183603900Y-86639400D01*
X188642300Y-85394800D02*
X188633100Y-86652100D01*
X187312300Y-84064800D02*
X186042300Y-84074000D01*
X183261000Y-86614000D02*
X178396900Y-86614000D01*
X183248300Y-84048600D02*
X183261000Y-86614000D01*
X188645800Y-81546700D02*
X188633100Y-84086700D01*
X183591200Y-81546700D02*
X188645800Y-81546700D01*
X183591200Y-84061300D02*
X183591200Y-81546700D01*
X183248300Y-81546700D02*
X183248300Y-84048600D01*
X178384200Y-81546700D02*
X183248300Y-81546700D01*
X178358800Y-84035900D02*
X178384200Y-81546700D01*
D11*
X178736240Y-82593488D02*
X179498144Y-82593488D01*
X179117192Y-82974440D02*
X179117192Y-82212536D01*
X179879097Y-81974440D02*
X180498144Y-81974440D01*
X180164811Y-82355393D01*
X180307668Y-82355393D01*
X180402906Y-82403012D01*
X180450525Y-82450631D01*
X180498144Y-82545869D01*
X180498144Y-82783964D01*
X180450525Y-82879202D01*
X180402906Y-82926821D01*
X180307668Y-82974440D01*
X180021954Y-82974440D01*
X179926716Y-82926821D01*
X179879097Y-82879202D01*
X180926716Y-82879202D02*
X180974335Y-82926821D01*
X180926716Y-82974440D01*
X180879097Y-82926821D01*
X180926716Y-82879202D01*
X180926716Y-82974440D01*
X181307668Y-81974440D02*
X181926716Y-81974440D01*
X181593382Y-82355393D01*
X181736240Y-82355393D01*
X181831478Y-82403012D01*
X181879097Y-82450631D01*
X181926716Y-82545869D01*
X181926716Y-82783964D01*
X181879097Y-82879202D01*
X181831478Y-82926821D01*
X181736240Y-82974440D01*
X181450525Y-82974440D01*
X181355287Y-82926821D01*
X181307668Y-82879202D01*
X182212430Y-81974440D02*
X182545763Y-82974440D01*
X182879097Y-81974440D01*
X184759125Y-82626508D02*
X185521030Y-82626508D01*
X185140078Y-83007460D02*
X185140078Y-82245556D01*
X186473411Y-82007460D02*
X185997220Y-82007460D01*
X185949601Y-82483651D01*
X185997220Y-82436032D01*
X186092459Y-82388413D01*
X186330554Y-82388413D01*
X186425792Y-82436032D01*
X186473411Y-82483651D01*
X186521030Y-82578889D01*
X186521030Y-82816984D01*
X186473411Y-82912222D01*
X186425792Y-82959841D01*
X186330554Y-83007460D01*
X186092459Y-83007460D01*
X185997220Y-82959841D01*
X185949601Y-82912222D01*
X186806744Y-82007460D02*
X187140078Y-83007460D01*
X187473411Y-82007460D01*
D12*
G36*
X175818800Y-67767200D02*
G01*
X99568000Y-67716400D01*
X99568000Y-62687200D01*
X175818800Y-62687200D01*
X175818800Y-67767200D01*
G37*
X175818800Y-67767200D02*
X99568000Y-67716400D01*
X99568000Y-62687200D01*
X175818800Y-62687200D01*
X175818800Y-67767200D01*
D11*
X98734571Y-87630047D02*
X98734571Y-88391952D01*
X99123452Y-85399571D02*
X98361547Y-85399571D01*
X98742500Y-85018619D02*
X98742500Y-85780523D01*
X98636128Y-45478652D02*
X98636128Y-44716747D01*
X98386947Y-42464028D02*
X99148852Y-42464028D01*
X98767900Y-42844980D02*
X98767900Y-42083076D01*
D10*
X188642300Y-41126100D02*
X188642300Y-42456100D01*
X187312300Y-41126100D02*
X188642300Y-41126100D01*
X188642300Y-43726100D02*
X188642300Y-46326100D01*
X186042300Y-43726100D02*
X188642300Y-43726100D01*
X186042300Y-41126100D02*
X186042300Y-43726100D01*
X188642300Y-46326100D02*
X178362300Y-46326100D01*
X186042300Y-41126100D02*
X178362300Y-41126100D01*
X178362300Y-41126100D02*
X178362300Y-46326100D01*
X188642300Y-84064800D02*
X188642300Y-85394800D01*
X187312300Y-84064800D02*
X188642300Y-84064800D01*
X188642300Y-86664800D02*
X188642300Y-89264800D01*
X186042300Y-86664800D02*
X188642300Y-86664800D01*
X186042300Y-84064800D02*
X186042300Y-86664800D01*
X188642300Y-89264800D02*
X178362300Y-89264800D01*
X186042300Y-84064800D02*
X178362300Y-84064800D01*
X178362300Y-84064800D02*
X178362300Y-89264800D01*
X99508000Y-89277500D02*
X99508000Y-87947500D01*
X100838000Y-89277500D02*
X99508000Y-89277500D01*
X99508000Y-86677500D02*
X99508000Y-84077500D01*
X102108000Y-86677500D02*
X99508000Y-86677500D01*
X102108000Y-89277500D02*
X102108000Y-86677500D01*
X99508000Y-84077500D02*
X175828000Y-84077500D01*
X102108000Y-89277500D02*
X175828000Y-89277500D01*
X175828000Y-89277500D02*
X175828000Y-84077500D01*
X99508000Y-46351500D02*
X99508000Y-45021500D01*
X100838000Y-46351500D02*
X99508000Y-46351500D01*
X99508000Y-43751500D02*
X99508000Y-41151500D01*
X102108000Y-43751500D02*
X99508000Y-43751500D01*
X102108000Y-46351500D02*
X102108000Y-43751500D01*
X99508000Y-41151500D02*
X175828000Y-41151500D01*
X102108000Y-46351500D02*
X175828000Y-46351500D01*
X175828000Y-46351500D02*
X175828000Y-41151500D01*
X178679625Y-65432600D02*
X178679625Y-65932600D01*
X178429625Y-65682600D02*
X178929625Y-65682600D01*
X183854400Y-67157600D02*
G75*
G03*
X183854400Y-67157600I-2620000J0D01*
G01*
X182294800Y-71580800D02*
X182294800Y-76980800D01*
X178994800Y-71580800D02*
X178994800Y-76980800D01*
X182294800Y-71580800D02*
X178994800Y-71580800D01*
X193457900Y-59001922D02*
X193457900Y-59519078D01*
X192037900Y-59001922D02*
X192037900Y-59519078D01*
X191478400Y-67752400D02*
X191634400Y-67752400D01*
X189162400Y-67752400D02*
X189318400Y-67752400D01*
X191478237Y-65151270D02*
G75*
G02*
X191478400Y-67233361I-1079837J-1041130D01*
G01*
X189318563Y-65151270D02*
G75*
G03*
X189318400Y-67233361I1079837J-1041130D01*
G01*
X191477008Y-64520065D02*
G75*
G02*
X191633916Y-67752400I-1078608J-1672335D01*
G01*
X189319792Y-64520065D02*
G75*
G03*
X189162884Y-67752400I1078608J-1672335D01*
G01*
X191176980Y-53360822D02*
X191176980Y-53877978D01*
X189756980Y-53360822D02*
X189756980Y-53877978D01*
X187803720Y-59506378D02*
X187803720Y-58989222D01*
X189223720Y-59506378D02*
X189223720Y-58989222D01*
X189203400Y-53360822D02*
X189203400Y-53877978D01*
X187783400Y-53360822D02*
X187783400Y-53877978D01*
X189790000Y-59504078D02*
X189790000Y-58986922D01*
X191210000Y-59504078D02*
X191210000Y-58986922D01*
X180309600Y-49282300D02*
X180309600Y-50542300D01*
X180309600Y-56102300D02*
X180309600Y-54842300D01*
X184069600Y-49282300D02*
X180309600Y-49282300D01*
X186319600Y-56102300D02*
X180309600Y-56102300D01*
X180337540Y-56747360D02*
X180337540Y-58007360D01*
X180337540Y-63567360D02*
X180337540Y-62307360D01*
X184097540Y-56747360D02*
X180337540Y-56747360D01*
X186347540Y-63567360D02*
X180337540Y-63567360D01*
X184878800Y-79848400D02*
X184878800Y-80898400D01*
X185928800Y-80898400D02*
X184878800Y-80898400D01*
X190978800Y-71498400D02*
X199778800Y-71498400D01*
X199778800Y-71498400D02*
X199778800Y-80698400D01*
X185078800Y-74198400D02*
X185078800Y-71498400D01*
X185078800Y-71498400D02*
X186978800Y-71498400D01*
X199778800Y-80698400D02*
X185078800Y-80698400D01*
X185078800Y-80698400D02*
X185078800Y-78098400D01*
X173168000Y-47374500D02*
X174498000Y-47374500D01*
X173168000Y-48704500D02*
X173168000Y-47374500D01*
X173168000Y-49974500D02*
X175828000Y-49974500D01*
X175828000Y-49974500D02*
X175828000Y-83054500D01*
X173168000Y-49974500D02*
X173168000Y-83054500D01*
X173168000Y-83054500D02*
X175828000Y-83054500D01*
X170628000Y-47374500D02*
X171958000Y-47374500D01*
X170628000Y-48704500D02*
X170628000Y-47374500D01*
X170628000Y-49974500D02*
X173288000Y-49974500D01*
X173288000Y-49974500D02*
X173288000Y-83054500D01*
X170628000Y-49974500D02*
X170628000Y-83054500D01*
X170628000Y-83054500D02*
X173288000Y-83054500D01*
X168088000Y-47374500D02*
X169418000Y-47374500D01*
X168088000Y-48704500D02*
X168088000Y-47374500D01*
X168088000Y-49974500D02*
X170748000Y-49974500D01*
X170748000Y-49974500D02*
X170748000Y-83054500D01*
X168088000Y-49974500D02*
X168088000Y-83054500D01*
X168088000Y-83054500D02*
X170748000Y-83054500D01*
X165548000Y-47374500D02*
X166878000Y-47374500D01*
X165548000Y-48704500D02*
X165548000Y-47374500D01*
X165548000Y-49974500D02*
X168208000Y-49974500D01*
X168208000Y-49974500D02*
X168208000Y-83054500D01*
X165548000Y-49974500D02*
X165548000Y-83054500D01*
X165548000Y-83054500D02*
X168208000Y-83054500D01*
X163008000Y-47374500D02*
X164338000Y-47374500D01*
X163008000Y-48704500D02*
X163008000Y-47374500D01*
X163008000Y-49974500D02*
X165668000Y-49974500D01*
X165668000Y-49974500D02*
X165668000Y-83054500D01*
X163008000Y-49974500D02*
X163008000Y-83054500D01*
X163008000Y-83054500D02*
X165668000Y-83054500D01*
X160468000Y-47374500D02*
X161798000Y-47374500D01*
X160468000Y-48704500D02*
X160468000Y-47374500D01*
X160468000Y-49974500D02*
X163128000Y-49974500D01*
X163128000Y-49974500D02*
X163128000Y-83054500D01*
X160468000Y-49974500D02*
X160468000Y-83054500D01*
X160468000Y-83054500D02*
X163128000Y-83054500D01*
X157928000Y-47374500D02*
X159258000Y-47374500D01*
X157928000Y-48704500D02*
X157928000Y-47374500D01*
X157928000Y-49974500D02*
X160588000Y-49974500D01*
X160588000Y-49974500D02*
X160588000Y-83054500D01*
X157928000Y-49974500D02*
X157928000Y-83054500D01*
X157928000Y-83054500D02*
X160588000Y-83054500D01*
X155388000Y-47374500D02*
X156718000Y-47374500D01*
X155388000Y-48704500D02*
X155388000Y-47374500D01*
X155388000Y-49974500D02*
X158048000Y-49974500D01*
X158048000Y-49974500D02*
X158048000Y-83054500D01*
X155388000Y-49974500D02*
X155388000Y-83054500D01*
X155388000Y-83054500D02*
X158048000Y-83054500D01*
X152848000Y-47374500D02*
X154178000Y-47374500D01*
X152848000Y-48704500D02*
X152848000Y-47374500D01*
X152848000Y-49974500D02*
X155508000Y-49974500D01*
X155508000Y-49974500D02*
X155508000Y-83054500D01*
X152848000Y-49974500D02*
X152848000Y-83054500D01*
X152848000Y-83054500D02*
X155508000Y-83054500D01*
X150308000Y-47374500D02*
X151638000Y-47374500D01*
X150308000Y-48704500D02*
X150308000Y-47374500D01*
X150308000Y-49974500D02*
X152968000Y-49974500D01*
X152968000Y-49974500D02*
X152968000Y-83054500D01*
X150308000Y-49974500D02*
X150308000Y-83054500D01*
X150308000Y-83054500D02*
X152968000Y-83054500D01*
X147768000Y-47374500D02*
X149098000Y-47374500D01*
X147768000Y-48704500D02*
X147768000Y-47374500D01*
X147768000Y-49974500D02*
X150428000Y-49974500D01*
X150428000Y-49974500D02*
X150428000Y-83054500D01*
X147768000Y-49974500D02*
X147768000Y-83054500D01*
X147768000Y-83054500D02*
X150428000Y-83054500D01*
X145228000Y-47374500D02*
X146558000Y-47374500D01*
X145228000Y-48704500D02*
X145228000Y-47374500D01*
X145228000Y-49974500D02*
X147888000Y-49974500D01*
X147888000Y-49974500D02*
X147888000Y-83054500D01*
X145228000Y-49974500D02*
X145228000Y-83054500D01*
X145228000Y-83054500D02*
X147888000Y-83054500D01*
X142688000Y-47374500D02*
X144018000Y-47374500D01*
X142688000Y-48704500D02*
X142688000Y-47374500D01*
X142688000Y-49974500D02*
X145348000Y-49974500D01*
X145348000Y-49974500D02*
X145348000Y-83054500D01*
X142688000Y-49974500D02*
X142688000Y-83054500D01*
X142688000Y-83054500D02*
X145348000Y-83054500D01*
X140148000Y-47374500D02*
X141478000Y-47374500D01*
X140148000Y-48704500D02*
X140148000Y-47374500D01*
X140148000Y-49974500D02*
X142808000Y-49974500D01*
X142808000Y-49974500D02*
X142808000Y-83054500D01*
X140148000Y-49974500D02*
X140148000Y-83054500D01*
X140148000Y-83054500D02*
X142808000Y-83054500D01*
X137608000Y-47374500D02*
X138938000Y-47374500D01*
X137608000Y-48704500D02*
X137608000Y-47374500D01*
X137608000Y-49974500D02*
X140268000Y-49974500D01*
X140268000Y-49974500D02*
X140268000Y-83054500D01*
X137608000Y-49974500D02*
X137608000Y-83054500D01*
X137608000Y-83054500D02*
X140268000Y-83054500D01*
X135068000Y-47374500D02*
X136398000Y-47374500D01*
X135068000Y-48704500D02*
X135068000Y-47374500D01*
X135068000Y-49974500D02*
X137728000Y-49974500D01*
X137728000Y-49974500D02*
X137728000Y-83054500D01*
X135068000Y-49974500D02*
X135068000Y-83054500D01*
X135068000Y-83054500D02*
X137728000Y-83054500D01*
X132528000Y-47374500D02*
X133858000Y-47374500D01*
X132528000Y-48704500D02*
X132528000Y-47374500D01*
X132528000Y-49974500D02*
X135188000Y-49974500D01*
X135188000Y-49974500D02*
X135188000Y-83054500D01*
X132528000Y-49974500D02*
X132528000Y-83054500D01*
X132528000Y-83054500D02*
X135188000Y-83054500D01*
X129988000Y-47374500D02*
X131318000Y-47374500D01*
X129988000Y-48704500D02*
X129988000Y-47374500D01*
X129988000Y-49974500D02*
X132648000Y-49974500D01*
X132648000Y-49974500D02*
X132648000Y-83054500D01*
X129988000Y-49974500D02*
X129988000Y-83054500D01*
X129988000Y-83054500D02*
X132648000Y-83054500D01*
X127448000Y-47374500D02*
X128778000Y-47374500D01*
X127448000Y-48704500D02*
X127448000Y-47374500D01*
X127448000Y-49974500D02*
X130108000Y-49974500D01*
X130108000Y-49974500D02*
X130108000Y-83054500D01*
X127448000Y-49974500D02*
X127448000Y-83054500D01*
X127448000Y-83054500D02*
X130108000Y-83054500D01*
X124908000Y-47374500D02*
X126238000Y-47374500D01*
X124908000Y-48704500D02*
X124908000Y-47374500D01*
X124908000Y-49974500D02*
X127568000Y-49974500D01*
X127568000Y-49974500D02*
X127568000Y-83054500D01*
X124908000Y-49974500D02*
X124908000Y-83054500D01*
X124908000Y-83054500D02*
X127568000Y-83054500D01*
X122368000Y-47374500D02*
X123698000Y-47374500D01*
X122368000Y-48704500D02*
X122368000Y-47374500D01*
X122368000Y-49974500D02*
X125028000Y-49974500D01*
X125028000Y-49974500D02*
X125028000Y-83054500D01*
X122368000Y-49974500D02*
X122368000Y-83054500D01*
X122368000Y-83054500D02*
X125028000Y-83054500D01*
X119828000Y-47374500D02*
X121158000Y-47374500D01*
X119828000Y-48704500D02*
X119828000Y-47374500D01*
X119828000Y-49974500D02*
X122488000Y-49974500D01*
X122488000Y-49974500D02*
X122488000Y-83054500D01*
X119828000Y-49974500D02*
X119828000Y-83054500D01*
X119828000Y-83054500D02*
X122488000Y-83054500D01*
X117288000Y-47374500D02*
X118618000Y-47374500D01*
X117288000Y-48704500D02*
X117288000Y-47374500D01*
X117288000Y-49974500D02*
X119948000Y-49974500D01*
X119948000Y-49974500D02*
X119948000Y-83054500D01*
X117288000Y-49974500D02*
X117288000Y-83054500D01*
X117288000Y-83054500D02*
X119948000Y-83054500D01*
X114748000Y-47374500D02*
X116078000Y-47374500D01*
X114748000Y-48704500D02*
X114748000Y-47374500D01*
X114748000Y-49974500D02*
X117408000Y-49974500D01*
X117408000Y-49974500D02*
X117408000Y-83054500D01*
X114748000Y-49974500D02*
X114748000Y-83054500D01*
X114748000Y-83054500D02*
X117408000Y-83054500D01*
X112208000Y-47374500D02*
X113538000Y-47374500D01*
X112208000Y-48704500D02*
X112208000Y-47374500D01*
X112208000Y-49974500D02*
X114868000Y-49974500D01*
X114868000Y-49974500D02*
X114868000Y-83054500D01*
X112208000Y-49974500D02*
X112208000Y-83054500D01*
X112208000Y-83054500D02*
X114868000Y-83054500D01*
X109668000Y-47374500D02*
X110998000Y-47374500D01*
X109668000Y-48704500D02*
X109668000Y-47374500D01*
X109668000Y-49974500D02*
X112328000Y-49974500D01*
X112328000Y-49974500D02*
X112328000Y-83054500D01*
X109668000Y-49974500D02*
X109668000Y-83054500D01*
X109668000Y-83054500D02*
X112328000Y-83054500D01*
X107128000Y-47374500D02*
X108458000Y-47374500D01*
X107128000Y-48704500D02*
X107128000Y-47374500D01*
X107128000Y-49974500D02*
X109788000Y-49974500D01*
X109788000Y-49974500D02*
X109788000Y-83054500D01*
X107128000Y-49974500D02*
X107128000Y-83054500D01*
X107128000Y-83054500D02*
X109788000Y-83054500D01*
X104588000Y-47374500D02*
X105918000Y-47374500D01*
X104588000Y-48704500D02*
X104588000Y-47374500D01*
X104588000Y-49974500D02*
X107248000Y-49974500D01*
X107248000Y-49974500D02*
X107248000Y-83054500D01*
X104588000Y-49974500D02*
X104588000Y-83054500D01*
X104588000Y-83054500D02*
X107248000Y-83054500D01*
X102048000Y-83054500D02*
X104708000Y-83054500D01*
X102048000Y-49974500D02*
X102048000Y-83054500D01*
X104708000Y-49974500D02*
X104708000Y-83054500D01*
X102048000Y-49974500D02*
X104708000Y-49974500D01*
X102048000Y-48704500D02*
X102048000Y-47374500D01*
X102048000Y-47374500D02*
X103378000Y-47374500D01*
X99508000Y-83054500D02*
X102168000Y-83054500D01*
X99508000Y-49974500D02*
X99508000Y-83054500D01*
X102168000Y-49974500D02*
X102168000Y-83054500D01*
X99508000Y-49974500D02*
X102168000Y-49974500D01*
X99508000Y-48704500D02*
X99508000Y-47374500D01*
X99508000Y-47374500D02*
X100838000Y-47374500D01*
D11*
X177988933Y-70410342D02*
X177941314Y-70457961D01*
X177798457Y-70505580D01*
X177703219Y-70505580D01*
X177560361Y-70457961D01*
X177465123Y-70362723D01*
X177417504Y-70267485D01*
X177369885Y-70077009D01*
X177369885Y-69934152D01*
X177417504Y-69743676D01*
X177465123Y-69648438D01*
X177560361Y-69553200D01*
X177703219Y-69505580D01*
X177798457Y-69505580D01*
X177941314Y-69553200D01*
X177988933Y-69600819D01*
X178941314Y-70505580D02*
X178369885Y-70505580D01*
X178655600Y-70505580D02*
X178655600Y-69505580D01*
X178560361Y-69648438D01*
X178465123Y-69743676D01*
X178369885Y-69791295D01*
X179957504Y-80055980D02*
X179957504Y-79055980D01*
X180195600Y-79055980D01*
X180338457Y-79103600D01*
X180433695Y-79198838D01*
X180481314Y-79294076D01*
X180528933Y-79484552D01*
X180528933Y-79627409D01*
X180481314Y-79817885D01*
X180433695Y-79913123D01*
X180338457Y-80008361D01*
X180195600Y-80055980D01*
X179957504Y-80055980D01*
X181481314Y-80055980D02*
X180909885Y-80055980D01*
X181195600Y-80055980D02*
X181195600Y-79055980D01*
X181100361Y-79198838D01*
X181005123Y-79294076D01*
X180909885Y-79341695D01*
X193136780Y-62183066D02*
X192660590Y-62516400D01*
X193136780Y-62754495D02*
X192136780Y-62754495D01*
X192136780Y-62373542D01*
X192184400Y-62278304D01*
X192232019Y-62230685D01*
X192327257Y-62183066D01*
X192470114Y-62183066D01*
X192565352Y-62230685D01*
X192612971Y-62278304D01*
X192660590Y-62373542D01*
X192660590Y-62754495D01*
X193136780Y-61230685D02*
X193136780Y-61802114D01*
X193136780Y-61516400D02*
X192136780Y-61516400D01*
X192279638Y-61611638D01*
X192374876Y-61706876D01*
X192422495Y-61802114D01*
X193898780Y-66892395D02*
X192898780Y-66892395D01*
X192898780Y-66654300D01*
X192946400Y-66511442D01*
X193041638Y-66416204D01*
X193136876Y-66368585D01*
X193327352Y-66320966D01*
X193470209Y-66320966D01*
X193660685Y-66368585D01*
X193755923Y-66416204D01*
X193851161Y-66511442D01*
X193898780Y-66654300D01*
X193898780Y-66892395D01*
X192994019Y-65940014D02*
X192946400Y-65892395D01*
X192898780Y-65797157D01*
X192898780Y-65559061D01*
X192946400Y-65463823D01*
X192994019Y-65416204D01*
X193089257Y-65368585D01*
X193184495Y-65368585D01*
X193327352Y-65416204D01*
X193898780Y-65987633D01*
X193898780Y-65368585D01*
X190793642Y-50992066D02*
X190841261Y-51039685D01*
X190888880Y-51182542D01*
X190888880Y-51277780D01*
X190841261Y-51420638D01*
X190746023Y-51515876D01*
X190650785Y-51563495D01*
X190460309Y-51611114D01*
X190317452Y-51611114D01*
X190126976Y-51563495D01*
X190031738Y-51515876D01*
X189936500Y-51420638D01*
X189888880Y-51277780D01*
X189888880Y-51182542D01*
X189936500Y-51039685D01*
X189984119Y-50992066D01*
X190222214Y-50134923D02*
X190888880Y-50134923D01*
X189841261Y-50373019D02*
X190555547Y-50611114D01*
X190555547Y-49992066D01*
X189028342Y-62142666D02*
X189075961Y-62190285D01*
X189123580Y-62333142D01*
X189123580Y-62428380D01*
X189075961Y-62571238D01*
X188980723Y-62666476D01*
X188885485Y-62714095D01*
X188695009Y-62761714D01*
X188552152Y-62761714D01*
X188361676Y-62714095D01*
X188266438Y-62666476D01*
X188171200Y-62571238D01*
X188123580Y-62428380D01*
X188123580Y-62333142D01*
X188171200Y-62190285D01*
X188218819Y-62142666D01*
X188218819Y-61761714D02*
X188171200Y-61714095D01*
X188123580Y-61618857D01*
X188123580Y-61380761D01*
X188171200Y-61285523D01*
X188218819Y-61237904D01*
X188314057Y-61190285D01*
X188409295Y-61190285D01*
X188552152Y-61237904D01*
X189123580Y-61809333D01*
X189123580Y-61190285D01*
X188837842Y-50979366D02*
X188885461Y-51026985D01*
X188933080Y-51169842D01*
X188933080Y-51265080D01*
X188885461Y-51407938D01*
X188790223Y-51503176D01*
X188694985Y-51550795D01*
X188504509Y-51598414D01*
X188361652Y-51598414D01*
X188171176Y-51550795D01*
X188075938Y-51503176D01*
X187980700Y-51407938D01*
X187933080Y-51265080D01*
X187933080Y-51169842D01*
X187980700Y-51026985D01*
X188028319Y-50979366D01*
X187933080Y-50074604D02*
X187933080Y-50550795D01*
X188409271Y-50598414D01*
X188361652Y-50550795D01*
X188314033Y-50455557D01*
X188314033Y-50217461D01*
X188361652Y-50122223D01*
X188409271Y-50074604D01*
X188504509Y-50026985D01*
X188742604Y-50026985D01*
X188837842Y-50074604D01*
X188885461Y-50122223D01*
X188933080Y-50217461D01*
X188933080Y-50455557D01*
X188885461Y-50550795D01*
X188837842Y-50598414D01*
X190958742Y-62142666D02*
X191006361Y-62190285D01*
X191053980Y-62333142D01*
X191053980Y-62428380D01*
X191006361Y-62571238D01*
X190911123Y-62666476D01*
X190815885Y-62714095D01*
X190625409Y-62761714D01*
X190482552Y-62761714D01*
X190292076Y-62714095D01*
X190196838Y-62666476D01*
X190101600Y-62571238D01*
X190053980Y-62428380D01*
X190053980Y-62333142D01*
X190101600Y-62190285D01*
X190149219Y-62142666D01*
X190053980Y-61809333D02*
X190053980Y-61190285D01*
X190434933Y-61523619D01*
X190434933Y-61380761D01*
X190482552Y-61285523D01*
X190530171Y-61237904D01*
X190625409Y-61190285D01*
X190863504Y-61190285D01*
X190958742Y-61237904D01*
X191006361Y-61285523D01*
X191053980Y-61380761D01*
X191053980Y-61666476D01*
X191006361Y-61761714D01*
X190958742Y-61809333D01*
X178325875Y-54981860D02*
X178325875Y-55791384D01*
X178373494Y-55886622D01*
X178421113Y-55934241D01*
X178516351Y-55981860D01*
X178706827Y-55981860D01*
X178802065Y-55934241D01*
X178849684Y-55886622D01*
X178897303Y-55791384D01*
X178897303Y-54981860D01*
X179325875Y-55077099D02*
X179373494Y-55029480D01*
X179468732Y-54981860D01*
X179706827Y-54981860D01*
X179802065Y-55029480D01*
X179849684Y-55077099D01*
X179897303Y-55172337D01*
X179897303Y-55267575D01*
X179849684Y-55410432D01*
X179278256Y-55981860D01*
X179897303Y-55981860D01*
X178404615Y-62472320D02*
X178404615Y-63281844D01*
X178452234Y-63377082D01*
X178499853Y-63424701D01*
X178595091Y-63472320D01*
X178785567Y-63472320D01*
X178880805Y-63424701D01*
X178928424Y-63377082D01*
X178976043Y-63281844D01*
X178976043Y-62472320D01*
X179976043Y-63472320D02*
X179404615Y-63472320D01*
X179690329Y-63472320D02*
X179690329Y-62472320D01*
X179595091Y-62615178D01*
X179499853Y-62710416D01*
X179404615Y-62758035D01*
X184304346Y-69939920D02*
X184304346Y-70654206D01*
X184256727Y-70797063D01*
X184161489Y-70892301D01*
X184018632Y-70939920D01*
X183923394Y-70939920D01*
X185304346Y-70939920D02*
X184732918Y-70939920D01*
X185018632Y-70939920D02*
X185018632Y-69939920D01*
X184923394Y-70082778D01*
X184828156Y-70178016D01*
X184732918Y-70225635D01*
M02*
