G04 #@! TF.GenerationSoftware,KiCad,Pcbnew,(5.1.6)-1*
G04 #@! TF.CreationDate,2020-06-02T23:24:11+04:00*
G04 #@! TF.ProjectId,Berfboard 2.0-psupply,42657266-626f-4617-9264-20322e302d70,rev?*
G04 #@! TF.SameCoordinates,Original*
G04 #@! TF.FileFunction,Copper,L2,Bot*
G04 #@! TF.FilePolarity,Positive*
%FSLAX46Y46*%
G04 Gerber Fmt 4.6, Leading zero omitted, Abs format (unit mm)*
G04 Created by KiCad (PCBNEW (5.1.6)-1) date 2020-06-02 23:24:11*
%MOMM*%
%LPD*%
G01*
G04 APERTURE LIST*
G04 #@! TA.AperFunction,ComponentPad*
%ADD10O,1.700000X1.700000*%
G04 #@! TD*
G04 #@! TA.AperFunction,ComponentPad*
%ADD11R,1.700000X1.700000*%
G04 #@! TD*
G04 #@! TA.AperFunction,ComponentPad*
%ADD12C,1.600000*%
G04 #@! TD*
G04 #@! TA.AperFunction,ComponentPad*
%ADD13R,1.600000X1.600000*%
G04 #@! TD*
G04 #@! TA.AperFunction,ComponentPad*
%ADD14C,1.800000*%
G04 #@! TD*
G04 #@! TA.AperFunction,ComponentPad*
%ADD15R,1.800000X1.800000*%
G04 #@! TD*
G04 #@! TA.AperFunction,ComponentPad*
%ADD16R,3.500000X3.500000*%
G04 #@! TD*
G04 #@! TA.AperFunction,ViaPad*
%ADD17C,3.100000*%
G04 #@! TD*
G04 #@! TA.AperFunction,ViaPad*
%ADD18C,0.800000*%
G04 #@! TD*
G04 #@! TA.AperFunction,Conductor*
%ADD19C,0.500000*%
G04 #@! TD*
G04 #@! TA.AperFunction,Conductor*
%ADD20C,0.700000*%
G04 #@! TD*
G04 #@! TA.AperFunction,Conductor*
%ADD21C,0.254000*%
G04 #@! TD*
G04 APERTURE END LIST*
D10*
X179692300Y-44996100D03*
X179692300Y-42456100D03*
X182232300Y-44996100D03*
X182232300Y-42456100D03*
X184772300Y-44996100D03*
X184772300Y-42456100D03*
X187312300Y-44996100D03*
D11*
X187312300Y-42456100D03*
D10*
X179692300Y-87934800D03*
X179692300Y-85394800D03*
X182232300Y-87934800D03*
X182232300Y-85394800D03*
X184772300Y-87934800D03*
X184772300Y-85394800D03*
X187312300Y-87934800D03*
D11*
X187312300Y-85394800D03*
D10*
X174498000Y-85407500D03*
X174498000Y-87947500D03*
X171958000Y-85407500D03*
X171958000Y-87947500D03*
X169418000Y-85407500D03*
X169418000Y-87947500D03*
X166878000Y-85407500D03*
X166878000Y-87947500D03*
X164338000Y-85407500D03*
X164338000Y-87947500D03*
X161798000Y-85407500D03*
X161798000Y-87947500D03*
X159258000Y-85407500D03*
X159258000Y-87947500D03*
X156718000Y-85407500D03*
X156718000Y-87947500D03*
X154178000Y-85407500D03*
X154178000Y-87947500D03*
X151638000Y-85407500D03*
X151638000Y-87947500D03*
X149098000Y-85407500D03*
X149098000Y-87947500D03*
X146558000Y-85407500D03*
X146558000Y-87947500D03*
X144018000Y-85407500D03*
X144018000Y-87947500D03*
X141478000Y-85407500D03*
X141478000Y-87947500D03*
X138938000Y-85407500D03*
X138938000Y-87947500D03*
X136398000Y-85407500D03*
X136398000Y-87947500D03*
X133858000Y-85407500D03*
X133858000Y-87947500D03*
X131318000Y-85407500D03*
X131318000Y-87947500D03*
X128778000Y-85407500D03*
X128778000Y-87947500D03*
X126238000Y-85407500D03*
X126238000Y-87947500D03*
X123698000Y-85407500D03*
X123698000Y-87947500D03*
X121158000Y-85407500D03*
X121158000Y-87947500D03*
X118618000Y-85407500D03*
X118618000Y-87947500D03*
X116078000Y-85407500D03*
X116078000Y-87947500D03*
X113538000Y-85407500D03*
X113538000Y-87947500D03*
X110998000Y-85407500D03*
X110998000Y-87947500D03*
X108458000Y-85407500D03*
X108458000Y-87947500D03*
X105918000Y-85407500D03*
X105918000Y-87947500D03*
X103378000Y-85407500D03*
X103378000Y-87947500D03*
X100838000Y-85407500D03*
D11*
X100838000Y-87947500D03*
D10*
X174498000Y-42481500D03*
X174498000Y-45021500D03*
X171958000Y-42481500D03*
X171958000Y-45021500D03*
X169418000Y-42481500D03*
X169418000Y-45021500D03*
X166878000Y-42481500D03*
X166878000Y-45021500D03*
X164338000Y-42481500D03*
X164338000Y-45021500D03*
X161798000Y-42481500D03*
X161798000Y-45021500D03*
X159258000Y-42481500D03*
X159258000Y-45021500D03*
X156718000Y-42481500D03*
X156718000Y-45021500D03*
X154178000Y-42481500D03*
X154178000Y-45021500D03*
X151638000Y-42481500D03*
X151638000Y-45021500D03*
X149098000Y-42481500D03*
X149098000Y-45021500D03*
X146558000Y-42481500D03*
X146558000Y-45021500D03*
X144018000Y-42481500D03*
X144018000Y-45021500D03*
X141478000Y-42481500D03*
X141478000Y-45021500D03*
X138938000Y-42481500D03*
X138938000Y-45021500D03*
X136398000Y-42481500D03*
X136398000Y-45021500D03*
X133858000Y-42481500D03*
X133858000Y-45021500D03*
X131318000Y-42481500D03*
X131318000Y-45021500D03*
X128778000Y-42481500D03*
X128778000Y-45021500D03*
X126238000Y-42481500D03*
X126238000Y-45021500D03*
X123698000Y-42481500D03*
X123698000Y-45021500D03*
X121158000Y-42481500D03*
X121158000Y-45021500D03*
X118618000Y-42481500D03*
X118618000Y-45021500D03*
X116078000Y-42481500D03*
X116078000Y-45021500D03*
X113538000Y-42481500D03*
X113538000Y-45021500D03*
X110998000Y-42481500D03*
X110998000Y-45021500D03*
X108458000Y-42481500D03*
X108458000Y-45021500D03*
X105918000Y-42481500D03*
X105918000Y-45021500D03*
X103378000Y-42481500D03*
X103378000Y-45021500D03*
X100838000Y-42481500D03*
D11*
X100838000Y-45021500D03*
D12*
X182484400Y-67157600D03*
D13*
X179984400Y-67157600D03*
D14*
X190398400Y-64922400D03*
D15*
X190398400Y-67462400D03*
G04 #@! TA.AperFunction,ComponentPad*
G36*
G01*
X190728800Y-70523400D02*
X190728800Y-72273400D01*
G75*
G02*
X189853800Y-73148400I-875000J0D01*
G01*
X188103800Y-73148400D01*
G75*
G02*
X187228800Y-72273400I0J875000D01*
G01*
X187228800Y-70523400D01*
G75*
G02*
X188103800Y-69648400I875000J0D01*
G01*
X189853800Y-69648400D01*
G75*
G02*
X190728800Y-70523400I0J-875000D01*
G01*
G37*
G04 #@! TD.AperFunction*
G04 #@! TA.AperFunction,ComponentPad*
G36*
G01*
X193478800Y-75098400D02*
X193478800Y-77098400D01*
G75*
G02*
X192728800Y-77848400I-750000J0D01*
G01*
X191228800Y-77848400D01*
G75*
G02*
X190478800Y-77098400I0J750000D01*
G01*
X190478800Y-75098400D01*
G75*
G02*
X191228800Y-74348400I750000J0D01*
G01*
X192728800Y-74348400D01*
G75*
G02*
X193478800Y-75098400I0J-750000D01*
G01*
G37*
G04 #@! TD.AperFunction*
D16*
X185978800Y-76098400D03*
D11*
X174498000Y-48704500D03*
D10*
X174498000Y-51244500D03*
X174498000Y-53784500D03*
X174498000Y-56324500D03*
X174498000Y-58864500D03*
X174498000Y-61404500D03*
X174498000Y-63944500D03*
X174498000Y-66484500D03*
X174498000Y-69024500D03*
X174498000Y-71564500D03*
X174498000Y-74104500D03*
X174498000Y-76644500D03*
X174498000Y-79184500D03*
X174498000Y-81724500D03*
D11*
X171958000Y-48704500D03*
D10*
X171958000Y-51244500D03*
X171958000Y-53784500D03*
X171958000Y-56324500D03*
X171958000Y-58864500D03*
X171958000Y-61404500D03*
X171958000Y-63944500D03*
X171958000Y-66484500D03*
X171958000Y-69024500D03*
X171958000Y-71564500D03*
X171958000Y-74104500D03*
X171958000Y-76644500D03*
X171958000Y-79184500D03*
X171958000Y-81724500D03*
D11*
X169418000Y-48704500D03*
D10*
X169418000Y-51244500D03*
X169418000Y-53784500D03*
X169418000Y-56324500D03*
X169418000Y-58864500D03*
X169418000Y-61404500D03*
X169418000Y-63944500D03*
X169418000Y-66484500D03*
X169418000Y-69024500D03*
X169418000Y-71564500D03*
X169418000Y-74104500D03*
X169418000Y-76644500D03*
X169418000Y-79184500D03*
X169418000Y-81724500D03*
D11*
X166878000Y-48704500D03*
D10*
X166878000Y-51244500D03*
X166878000Y-53784500D03*
X166878000Y-56324500D03*
X166878000Y-58864500D03*
X166878000Y-61404500D03*
X166878000Y-63944500D03*
X166878000Y-66484500D03*
X166878000Y-69024500D03*
X166878000Y-71564500D03*
X166878000Y-74104500D03*
X166878000Y-76644500D03*
X166878000Y-79184500D03*
X166878000Y-81724500D03*
D11*
X164338000Y-48704500D03*
D10*
X164338000Y-51244500D03*
X164338000Y-53784500D03*
X164338000Y-56324500D03*
X164338000Y-58864500D03*
X164338000Y-61404500D03*
X164338000Y-63944500D03*
X164338000Y-66484500D03*
X164338000Y-69024500D03*
X164338000Y-71564500D03*
X164338000Y-74104500D03*
X164338000Y-76644500D03*
X164338000Y-79184500D03*
X164338000Y-81724500D03*
D11*
X161798000Y-48704500D03*
D10*
X161798000Y-51244500D03*
X161798000Y-53784500D03*
X161798000Y-56324500D03*
X161798000Y-58864500D03*
X161798000Y-61404500D03*
X161798000Y-63944500D03*
X161798000Y-66484500D03*
X161798000Y-69024500D03*
X161798000Y-71564500D03*
X161798000Y-74104500D03*
X161798000Y-76644500D03*
X161798000Y-79184500D03*
X161798000Y-81724500D03*
D11*
X159258000Y-48704500D03*
D10*
X159258000Y-51244500D03*
X159258000Y-53784500D03*
X159258000Y-56324500D03*
X159258000Y-58864500D03*
X159258000Y-61404500D03*
X159258000Y-63944500D03*
X159258000Y-66484500D03*
X159258000Y-69024500D03*
X159258000Y-71564500D03*
X159258000Y-74104500D03*
X159258000Y-76644500D03*
X159258000Y-79184500D03*
X159258000Y-81724500D03*
D11*
X156718000Y-48704500D03*
D10*
X156718000Y-51244500D03*
X156718000Y-53784500D03*
X156718000Y-56324500D03*
X156718000Y-58864500D03*
X156718000Y-61404500D03*
X156718000Y-63944500D03*
X156718000Y-66484500D03*
X156718000Y-69024500D03*
X156718000Y-71564500D03*
X156718000Y-74104500D03*
X156718000Y-76644500D03*
X156718000Y-79184500D03*
X156718000Y-81724500D03*
D11*
X154178000Y-48704500D03*
D10*
X154178000Y-51244500D03*
X154178000Y-53784500D03*
X154178000Y-56324500D03*
X154178000Y-58864500D03*
X154178000Y-61404500D03*
X154178000Y-63944500D03*
X154178000Y-66484500D03*
X154178000Y-69024500D03*
X154178000Y-71564500D03*
X154178000Y-74104500D03*
X154178000Y-76644500D03*
X154178000Y-79184500D03*
X154178000Y-81724500D03*
D11*
X151638000Y-48704500D03*
D10*
X151638000Y-51244500D03*
X151638000Y-53784500D03*
X151638000Y-56324500D03*
X151638000Y-58864500D03*
X151638000Y-61404500D03*
X151638000Y-63944500D03*
X151638000Y-66484500D03*
X151638000Y-69024500D03*
X151638000Y-71564500D03*
X151638000Y-74104500D03*
X151638000Y-76644500D03*
X151638000Y-79184500D03*
X151638000Y-81724500D03*
D11*
X149098000Y-48704500D03*
D10*
X149098000Y-51244500D03*
X149098000Y-53784500D03*
X149098000Y-56324500D03*
X149098000Y-58864500D03*
X149098000Y-61404500D03*
X149098000Y-63944500D03*
X149098000Y-66484500D03*
X149098000Y-69024500D03*
X149098000Y-71564500D03*
X149098000Y-74104500D03*
X149098000Y-76644500D03*
X149098000Y-79184500D03*
X149098000Y-81724500D03*
D11*
X146558000Y-48704500D03*
D10*
X146558000Y-51244500D03*
X146558000Y-53784500D03*
X146558000Y-56324500D03*
X146558000Y-58864500D03*
X146558000Y-61404500D03*
X146558000Y-63944500D03*
X146558000Y-66484500D03*
X146558000Y-69024500D03*
X146558000Y-71564500D03*
X146558000Y-74104500D03*
X146558000Y-76644500D03*
X146558000Y-79184500D03*
X146558000Y-81724500D03*
D11*
X144018000Y-48704500D03*
D10*
X144018000Y-51244500D03*
X144018000Y-53784500D03*
X144018000Y-56324500D03*
X144018000Y-58864500D03*
X144018000Y-61404500D03*
X144018000Y-63944500D03*
X144018000Y-66484500D03*
X144018000Y-69024500D03*
X144018000Y-71564500D03*
X144018000Y-74104500D03*
X144018000Y-76644500D03*
X144018000Y-79184500D03*
X144018000Y-81724500D03*
D11*
X141478000Y-48704500D03*
D10*
X141478000Y-51244500D03*
X141478000Y-53784500D03*
X141478000Y-56324500D03*
X141478000Y-58864500D03*
X141478000Y-61404500D03*
X141478000Y-63944500D03*
X141478000Y-66484500D03*
X141478000Y-69024500D03*
X141478000Y-71564500D03*
X141478000Y-74104500D03*
X141478000Y-76644500D03*
X141478000Y-79184500D03*
X141478000Y-81724500D03*
D11*
X138938000Y-48704500D03*
D10*
X138938000Y-51244500D03*
X138938000Y-53784500D03*
X138938000Y-56324500D03*
X138938000Y-58864500D03*
X138938000Y-61404500D03*
X138938000Y-63944500D03*
X138938000Y-66484500D03*
X138938000Y-69024500D03*
X138938000Y-71564500D03*
X138938000Y-74104500D03*
X138938000Y-76644500D03*
X138938000Y-79184500D03*
X138938000Y-81724500D03*
D11*
X136398000Y-48704500D03*
D10*
X136398000Y-51244500D03*
X136398000Y-53784500D03*
X136398000Y-56324500D03*
X136398000Y-58864500D03*
X136398000Y-61404500D03*
X136398000Y-63944500D03*
X136398000Y-66484500D03*
X136398000Y-69024500D03*
X136398000Y-71564500D03*
X136398000Y-74104500D03*
X136398000Y-76644500D03*
X136398000Y-79184500D03*
X136398000Y-81724500D03*
D11*
X133858000Y-48704500D03*
D10*
X133858000Y-51244500D03*
X133858000Y-53784500D03*
X133858000Y-56324500D03*
X133858000Y-58864500D03*
X133858000Y-61404500D03*
X133858000Y-63944500D03*
X133858000Y-66484500D03*
X133858000Y-69024500D03*
X133858000Y-71564500D03*
X133858000Y-74104500D03*
X133858000Y-76644500D03*
X133858000Y-79184500D03*
X133858000Y-81724500D03*
D11*
X131318000Y-48704500D03*
D10*
X131318000Y-51244500D03*
X131318000Y-53784500D03*
X131318000Y-56324500D03*
X131318000Y-58864500D03*
X131318000Y-61404500D03*
X131318000Y-63944500D03*
X131318000Y-66484500D03*
X131318000Y-69024500D03*
X131318000Y-71564500D03*
X131318000Y-74104500D03*
X131318000Y-76644500D03*
X131318000Y-79184500D03*
X131318000Y-81724500D03*
D11*
X128778000Y-48704500D03*
D10*
X128778000Y-51244500D03*
X128778000Y-53784500D03*
X128778000Y-56324500D03*
X128778000Y-58864500D03*
X128778000Y-61404500D03*
X128778000Y-63944500D03*
X128778000Y-66484500D03*
X128778000Y-69024500D03*
X128778000Y-71564500D03*
X128778000Y-74104500D03*
X128778000Y-76644500D03*
X128778000Y-79184500D03*
X128778000Y-81724500D03*
D11*
X126238000Y-48704500D03*
D10*
X126238000Y-51244500D03*
X126238000Y-53784500D03*
X126238000Y-56324500D03*
X126238000Y-58864500D03*
X126238000Y-61404500D03*
X126238000Y-63944500D03*
X126238000Y-66484500D03*
X126238000Y-69024500D03*
X126238000Y-71564500D03*
X126238000Y-74104500D03*
X126238000Y-76644500D03*
X126238000Y-79184500D03*
X126238000Y-81724500D03*
D11*
X123698000Y-48704500D03*
D10*
X123698000Y-51244500D03*
X123698000Y-53784500D03*
X123698000Y-56324500D03*
X123698000Y-58864500D03*
X123698000Y-61404500D03*
X123698000Y-63944500D03*
X123698000Y-66484500D03*
X123698000Y-69024500D03*
X123698000Y-71564500D03*
X123698000Y-74104500D03*
X123698000Y-76644500D03*
X123698000Y-79184500D03*
X123698000Y-81724500D03*
D11*
X121158000Y-48704500D03*
D10*
X121158000Y-51244500D03*
X121158000Y-53784500D03*
X121158000Y-56324500D03*
X121158000Y-58864500D03*
X121158000Y-61404500D03*
X121158000Y-63944500D03*
X121158000Y-66484500D03*
X121158000Y-69024500D03*
X121158000Y-71564500D03*
X121158000Y-74104500D03*
X121158000Y-76644500D03*
X121158000Y-79184500D03*
X121158000Y-81724500D03*
D11*
X118618000Y-48704500D03*
D10*
X118618000Y-51244500D03*
X118618000Y-53784500D03*
X118618000Y-56324500D03*
X118618000Y-58864500D03*
X118618000Y-61404500D03*
X118618000Y-63944500D03*
X118618000Y-66484500D03*
X118618000Y-69024500D03*
X118618000Y-71564500D03*
X118618000Y-74104500D03*
X118618000Y-76644500D03*
X118618000Y-79184500D03*
X118618000Y-81724500D03*
D11*
X116078000Y-48704500D03*
D10*
X116078000Y-51244500D03*
X116078000Y-53784500D03*
X116078000Y-56324500D03*
X116078000Y-58864500D03*
X116078000Y-61404500D03*
X116078000Y-63944500D03*
X116078000Y-66484500D03*
X116078000Y-69024500D03*
X116078000Y-71564500D03*
X116078000Y-74104500D03*
X116078000Y-76644500D03*
X116078000Y-79184500D03*
X116078000Y-81724500D03*
D11*
X113538000Y-48704500D03*
D10*
X113538000Y-51244500D03*
X113538000Y-53784500D03*
X113538000Y-56324500D03*
X113538000Y-58864500D03*
X113538000Y-61404500D03*
X113538000Y-63944500D03*
X113538000Y-66484500D03*
X113538000Y-69024500D03*
X113538000Y-71564500D03*
X113538000Y-74104500D03*
X113538000Y-76644500D03*
X113538000Y-79184500D03*
X113538000Y-81724500D03*
D11*
X110998000Y-48704500D03*
D10*
X110998000Y-51244500D03*
X110998000Y-53784500D03*
X110998000Y-56324500D03*
X110998000Y-58864500D03*
X110998000Y-61404500D03*
X110998000Y-63944500D03*
X110998000Y-66484500D03*
X110998000Y-69024500D03*
X110998000Y-71564500D03*
X110998000Y-74104500D03*
X110998000Y-76644500D03*
X110998000Y-79184500D03*
X110998000Y-81724500D03*
D11*
X108458000Y-48704500D03*
D10*
X108458000Y-51244500D03*
X108458000Y-53784500D03*
X108458000Y-56324500D03*
X108458000Y-58864500D03*
X108458000Y-61404500D03*
X108458000Y-63944500D03*
X108458000Y-66484500D03*
X108458000Y-69024500D03*
X108458000Y-71564500D03*
X108458000Y-74104500D03*
X108458000Y-76644500D03*
X108458000Y-79184500D03*
X108458000Y-81724500D03*
D11*
X105918000Y-48704500D03*
D10*
X105918000Y-51244500D03*
X105918000Y-53784500D03*
X105918000Y-56324500D03*
X105918000Y-58864500D03*
X105918000Y-61404500D03*
X105918000Y-63944500D03*
X105918000Y-66484500D03*
X105918000Y-69024500D03*
X105918000Y-71564500D03*
X105918000Y-74104500D03*
X105918000Y-76644500D03*
X105918000Y-79184500D03*
X105918000Y-81724500D03*
X103378000Y-81724500D03*
X103378000Y-79184500D03*
X103378000Y-76644500D03*
X103378000Y-74104500D03*
X103378000Y-71564500D03*
X103378000Y-69024500D03*
X103378000Y-66484500D03*
X103378000Y-63944500D03*
X103378000Y-61404500D03*
X103378000Y-58864500D03*
X103378000Y-56324500D03*
X103378000Y-53784500D03*
X103378000Y-51244500D03*
D11*
X103378000Y-48704500D03*
D10*
X100838000Y-81724500D03*
X100838000Y-79184500D03*
X100838000Y-76644500D03*
X100838000Y-74104500D03*
X100838000Y-71564500D03*
X100838000Y-69024500D03*
X100838000Y-66484500D03*
X100838000Y-63944500D03*
X100838000Y-61404500D03*
X100838000Y-58864500D03*
X100838000Y-56324500D03*
X100838000Y-53784500D03*
X100838000Y-51244500D03*
D11*
X100838000Y-48704500D03*
D17*
X96647000Y-42799000D03*
X96659700Y-87414100D03*
X191401700Y-42811700D03*
X191401700Y-87363300D03*
D18*
X183261000Y-54737000D03*
X177253900Y-48577500D03*
D19*
X103378000Y-69024500D02*
X103378000Y-81724500D01*
X105918000Y-69024500D02*
X105918000Y-81724500D01*
X108458000Y-69024500D02*
X108458000Y-81724500D01*
X110998000Y-69024500D02*
X110998000Y-81724500D01*
X113538000Y-69024500D02*
X113538000Y-81724500D01*
X116078000Y-69024500D02*
X116078000Y-81724500D01*
X118618000Y-69024500D02*
X118618000Y-81724500D01*
X121158000Y-69024500D02*
X121158000Y-81724500D01*
X123698000Y-69024500D02*
X123698000Y-81724500D01*
X126238000Y-76644500D02*
X126238000Y-81724500D01*
X126238000Y-69024500D02*
X126238000Y-76644500D01*
X128778000Y-69024500D02*
X128778000Y-81724500D01*
X131318000Y-69024500D02*
X131318000Y-81724500D01*
X133858000Y-69024500D02*
X133858000Y-81724500D01*
X136398000Y-69024500D02*
X136398000Y-81724500D01*
X138938000Y-69024500D02*
X138938000Y-81724500D01*
X141478000Y-69024500D02*
X141478000Y-81724500D01*
X144018000Y-69024500D02*
X144018000Y-81724500D01*
X146558000Y-69024500D02*
X146558000Y-81724500D01*
X149098000Y-69024500D02*
X149098000Y-81724500D01*
X151638000Y-69024500D02*
X151638000Y-81724500D01*
X154178000Y-69024500D02*
X154178000Y-81724500D01*
X156718000Y-69024500D02*
X156718000Y-81724500D01*
X159258000Y-69024500D02*
X159258000Y-81724500D01*
X161798000Y-69024500D02*
X161798000Y-81724500D01*
X164338000Y-69024500D02*
X164338000Y-81724500D01*
X166878000Y-69024500D02*
X166878000Y-81724500D01*
X169418000Y-69024500D02*
X169418000Y-81724500D01*
X171958000Y-69024500D02*
X171958000Y-81724500D01*
X174498000Y-69024500D02*
X174498000Y-81724500D01*
X103378000Y-61404500D02*
X103378000Y-48704500D01*
X105918000Y-61404500D02*
X105918000Y-48704500D01*
X108458000Y-61404500D02*
X108458000Y-48704500D01*
X110998000Y-61404500D02*
X110998000Y-48704500D01*
X113538000Y-61404500D02*
X113538000Y-48704500D01*
X116078000Y-61404500D02*
X116078000Y-48704500D01*
X118618000Y-61404500D02*
X118618000Y-48704500D01*
X121158000Y-61404500D02*
X121158000Y-48704500D01*
X123698000Y-61404500D02*
X123698000Y-48704500D01*
X126238000Y-61404500D02*
X126238000Y-48704500D01*
X128778000Y-61404500D02*
X128778000Y-48704500D01*
X131318000Y-53784500D02*
X131318000Y-48704500D01*
X131318000Y-61404500D02*
X131318000Y-53784500D01*
X133858000Y-61404500D02*
X133858000Y-48704500D01*
X136398000Y-61404500D02*
X136398000Y-48704500D01*
X138938000Y-61404500D02*
X138938000Y-48704500D01*
X141478000Y-56324500D02*
X141478000Y-48704500D01*
X141478000Y-61404500D02*
X141478000Y-56324500D01*
X144018000Y-61404500D02*
X144018000Y-48704500D01*
X146558000Y-61404500D02*
X146558000Y-48704500D01*
X149098000Y-61404500D02*
X149098000Y-48704500D01*
X151638000Y-61404500D02*
X151638000Y-48704500D01*
X154178000Y-61404500D02*
X154178000Y-48704500D01*
X156718000Y-61404500D02*
X156718000Y-48704500D01*
X159258000Y-61404500D02*
X159258000Y-48704500D01*
X161798000Y-61404500D02*
X161798000Y-48704500D01*
X164338000Y-48704500D02*
X164338000Y-61404500D01*
X166878000Y-48704500D02*
X166878000Y-61404500D01*
X169418000Y-48704500D02*
X169418000Y-61404500D01*
X171958000Y-48704500D02*
X171958000Y-61404500D01*
X174498000Y-48704500D02*
X174498000Y-61404500D01*
D20*
X177253900Y-82956400D02*
X179692300Y-85394800D01*
X177253900Y-48577500D02*
X177253900Y-82956400D01*
D21*
G36*
X190366715Y-40875378D02*
G01*
X190008844Y-41114500D01*
X189704500Y-41418844D01*
X189465378Y-41776715D01*
X189300669Y-42174359D01*
X189216700Y-42596496D01*
X189216700Y-43026904D01*
X189300669Y-43449041D01*
X189465378Y-43846685D01*
X189704500Y-44204556D01*
X190008844Y-44508900D01*
X190366715Y-44748022D01*
X190764359Y-44912731D01*
X191186496Y-44996700D01*
X191616904Y-44996700D01*
X192039041Y-44912731D01*
X192436685Y-44748022D01*
X192794556Y-44508900D01*
X193098900Y-44204556D01*
X193338022Y-43846685D01*
X193502731Y-43449041D01*
X193586700Y-43026904D01*
X193586700Y-42596496D01*
X193502731Y-42174359D01*
X193338022Y-41776715D01*
X193098900Y-41418844D01*
X192794556Y-41114500D01*
X192436685Y-40875378D01*
X192388695Y-40855500D01*
X193751600Y-40855500D01*
X193751601Y-73774196D01*
X193722980Y-73758898D01*
X193603282Y-73722588D01*
X193478800Y-73710328D01*
X192264550Y-73713400D01*
X192105800Y-73872150D01*
X192105800Y-75971400D01*
X192125800Y-75971400D01*
X192125800Y-76225400D01*
X192105800Y-76225400D01*
X192105800Y-78324650D01*
X192264550Y-78483400D01*
X193478800Y-78486472D01*
X193603282Y-78474212D01*
X193722980Y-78437902D01*
X193751601Y-78422604D01*
X193751601Y-89573500D01*
X176911000Y-89573500D01*
X176911000Y-88291691D01*
X178250819Y-88291691D01*
X178348143Y-88566052D01*
X178497122Y-88816155D01*
X178692031Y-89032388D01*
X178925380Y-89206441D01*
X179188201Y-89331625D01*
X179335410Y-89376276D01*
X179565300Y-89254955D01*
X179565300Y-88061800D01*
X179819300Y-88061800D01*
X179819300Y-89254955D01*
X180049190Y-89376276D01*
X180196399Y-89331625D01*
X180459220Y-89206441D01*
X180692569Y-89032388D01*
X180887478Y-88816155D01*
X180962300Y-88690545D01*
X181037122Y-88816155D01*
X181232031Y-89032388D01*
X181465380Y-89206441D01*
X181728201Y-89331625D01*
X181875410Y-89376276D01*
X182105300Y-89254955D01*
X182105300Y-88061800D01*
X182359300Y-88061800D01*
X182359300Y-89254955D01*
X182589190Y-89376276D01*
X182736399Y-89331625D01*
X182999220Y-89206441D01*
X183232569Y-89032388D01*
X183427478Y-88816155D01*
X183502300Y-88690545D01*
X183577122Y-88816155D01*
X183772031Y-89032388D01*
X184005380Y-89206441D01*
X184268201Y-89331625D01*
X184415410Y-89376276D01*
X184645300Y-89254955D01*
X184645300Y-88061800D01*
X184899300Y-88061800D01*
X184899300Y-89254955D01*
X185129190Y-89376276D01*
X185276399Y-89331625D01*
X185539220Y-89206441D01*
X185772569Y-89032388D01*
X185967478Y-88816155D01*
X186042300Y-88690545D01*
X186117122Y-88816155D01*
X186312031Y-89032388D01*
X186545380Y-89206441D01*
X186808201Y-89331625D01*
X186955410Y-89376276D01*
X187185300Y-89254955D01*
X187185300Y-88061800D01*
X187439300Y-88061800D01*
X187439300Y-89254955D01*
X187669190Y-89376276D01*
X187816399Y-89331625D01*
X188079220Y-89206441D01*
X188312569Y-89032388D01*
X188507478Y-88816155D01*
X188656457Y-88566052D01*
X188753781Y-88291691D01*
X188633114Y-88061800D01*
X187439300Y-88061800D01*
X187185300Y-88061800D01*
X184899300Y-88061800D01*
X184645300Y-88061800D01*
X182359300Y-88061800D01*
X182105300Y-88061800D01*
X179819300Y-88061800D01*
X179565300Y-88061800D01*
X178371486Y-88061800D01*
X178250819Y-88291691D01*
X176911000Y-88291691D01*
X176911000Y-84006500D01*
X178207300Y-85302800D01*
X178207300Y-85541060D01*
X178264368Y-85827958D01*
X178376310Y-86098211D01*
X178538825Y-86341432D01*
X178745668Y-86548275D01*
X178921706Y-86665900D01*
X178692031Y-86837212D01*
X178497122Y-87053445D01*
X178348143Y-87303548D01*
X178250819Y-87577909D01*
X178371486Y-87807800D01*
X179565300Y-87807800D01*
X179565300Y-87787800D01*
X179819300Y-87787800D01*
X179819300Y-87807800D01*
X182105300Y-87807800D01*
X182105300Y-87787800D01*
X182359300Y-87787800D01*
X182359300Y-87807800D01*
X184645300Y-87807800D01*
X184645300Y-87787800D01*
X184899300Y-87787800D01*
X184899300Y-87807800D01*
X187185300Y-87807800D01*
X187185300Y-87787800D01*
X187439300Y-87787800D01*
X187439300Y-87807800D01*
X188633114Y-87807800D01*
X188753781Y-87577909D01*
X188656457Y-87303548D01*
X188563859Y-87148096D01*
X189216700Y-87148096D01*
X189216700Y-87578504D01*
X189300669Y-88000641D01*
X189465378Y-88398285D01*
X189704500Y-88756156D01*
X190008844Y-89060500D01*
X190366715Y-89299622D01*
X190764359Y-89464331D01*
X191186496Y-89548300D01*
X191616904Y-89548300D01*
X192039041Y-89464331D01*
X192436685Y-89299622D01*
X192794556Y-89060500D01*
X193098900Y-88756156D01*
X193338022Y-88398285D01*
X193502731Y-88000641D01*
X193586700Y-87578504D01*
X193586700Y-87148096D01*
X193502731Y-86725959D01*
X193338022Y-86328315D01*
X193098900Y-85970444D01*
X192794556Y-85666100D01*
X192436685Y-85426978D01*
X192039041Y-85262269D01*
X191616904Y-85178300D01*
X191186496Y-85178300D01*
X190764359Y-85262269D01*
X190366715Y-85426978D01*
X190008844Y-85666100D01*
X189704500Y-85970444D01*
X189465378Y-86328315D01*
X189300669Y-86725959D01*
X189216700Y-87148096D01*
X188563859Y-87148096D01*
X188507478Y-87053445D01*
X188330674Y-86857298D01*
X188406480Y-86834302D01*
X188516794Y-86775337D01*
X188613485Y-86695985D01*
X188692837Y-86599294D01*
X188751802Y-86488980D01*
X188788112Y-86369282D01*
X188800372Y-86244800D01*
X188800372Y-84544800D01*
X188788112Y-84420318D01*
X188751802Y-84300620D01*
X188692837Y-84190306D01*
X188613485Y-84093615D01*
X188516794Y-84014263D01*
X188406480Y-83955298D01*
X188286782Y-83918988D01*
X188162300Y-83906728D01*
X186462300Y-83906728D01*
X186337818Y-83918988D01*
X186218120Y-83955298D01*
X186107806Y-84014263D01*
X186011115Y-84093615D01*
X185931763Y-84190306D01*
X185872798Y-84300620D01*
X185850787Y-84373180D01*
X185718932Y-84241325D01*
X185475711Y-84078810D01*
X185205458Y-83966868D01*
X184918560Y-83909800D01*
X184626040Y-83909800D01*
X184339142Y-83966868D01*
X184068889Y-84078810D01*
X183825668Y-84241325D01*
X183618825Y-84448168D01*
X183502300Y-84622560D01*
X183385775Y-84448168D01*
X183178932Y-84241325D01*
X182935711Y-84078810D01*
X182665458Y-83966868D01*
X182378560Y-83909800D01*
X182086040Y-83909800D01*
X181799142Y-83966868D01*
X181528889Y-84078810D01*
X181285668Y-84241325D01*
X181078825Y-84448168D01*
X180962300Y-84622560D01*
X180845775Y-84448168D01*
X180638932Y-84241325D01*
X180395711Y-84078810D01*
X180125458Y-83966868D01*
X179838560Y-83909800D01*
X179600300Y-83909800D01*
X178238900Y-82548400D01*
X178238900Y-74348400D01*
X183590728Y-74348400D01*
X183590728Y-77848400D01*
X183602988Y-77972882D01*
X183639298Y-78092580D01*
X183698263Y-78202894D01*
X183777615Y-78299585D01*
X183874306Y-78378937D01*
X183984620Y-78437902D01*
X184104318Y-78474212D01*
X184228800Y-78486472D01*
X187728800Y-78486472D01*
X187853282Y-78474212D01*
X187972980Y-78437902D01*
X188083294Y-78378937D01*
X188179985Y-78299585D01*
X188259337Y-78202894D01*
X188318302Y-78092580D01*
X188354612Y-77972882D01*
X188366872Y-77848400D01*
X189840728Y-77848400D01*
X189852988Y-77972882D01*
X189889298Y-78092580D01*
X189948263Y-78202894D01*
X190027615Y-78299585D01*
X190124306Y-78378937D01*
X190234620Y-78437902D01*
X190354318Y-78474212D01*
X190478800Y-78486472D01*
X191693050Y-78483400D01*
X191851800Y-78324650D01*
X191851800Y-76225400D01*
X190002550Y-76225400D01*
X189843800Y-76384150D01*
X189840728Y-77848400D01*
X188366872Y-77848400D01*
X188366872Y-74348400D01*
X189840728Y-74348400D01*
X189843800Y-75812650D01*
X190002550Y-75971400D01*
X191851800Y-75971400D01*
X191851800Y-73872150D01*
X191693050Y-73713400D01*
X190478800Y-73710328D01*
X190354318Y-73722588D01*
X190234620Y-73758898D01*
X190124306Y-73817863D01*
X190027615Y-73897215D01*
X189948263Y-73993906D01*
X189889298Y-74104220D01*
X189852988Y-74223918D01*
X189840728Y-74348400D01*
X188366872Y-74348400D01*
X188354612Y-74223918D01*
X188318302Y-74104220D01*
X188259337Y-73993906D01*
X188179985Y-73897215D01*
X188083294Y-73817863D01*
X188006669Y-73776906D01*
X188103800Y-73786472D01*
X189853800Y-73786472D01*
X190148986Y-73757399D01*
X190432828Y-73671296D01*
X190694418Y-73531473D01*
X190923703Y-73343303D01*
X191111873Y-73114018D01*
X191251696Y-72852428D01*
X191337799Y-72568586D01*
X191366872Y-72273400D01*
X191366872Y-70523400D01*
X191337799Y-70228214D01*
X191251696Y-69944372D01*
X191111873Y-69682782D01*
X190923703Y-69453497D01*
X190694418Y-69265327D01*
X190432828Y-69125504D01*
X190148986Y-69039401D01*
X189853800Y-69010328D01*
X188103800Y-69010328D01*
X187808614Y-69039401D01*
X187524772Y-69125504D01*
X187263182Y-69265327D01*
X187033897Y-69453497D01*
X186845727Y-69682782D01*
X186705904Y-69944372D01*
X186619801Y-70228214D01*
X186590728Y-70523400D01*
X186590728Y-72273400D01*
X186619801Y-72568586D01*
X186705904Y-72852428D01*
X186845727Y-73114018D01*
X187033897Y-73343303D01*
X187263182Y-73531473D01*
X187524772Y-73671296D01*
X187653443Y-73710328D01*
X184228800Y-73710328D01*
X184104318Y-73722588D01*
X183984620Y-73758898D01*
X183874306Y-73817863D01*
X183777615Y-73897215D01*
X183698263Y-73993906D01*
X183639298Y-74104220D01*
X183602988Y-74223918D01*
X183590728Y-74348400D01*
X178238900Y-74348400D01*
X178238900Y-66357600D01*
X178546328Y-66357600D01*
X178546328Y-67957600D01*
X178558588Y-68082082D01*
X178594898Y-68201780D01*
X178653863Y-68312094D01*
X178733215Y-68408785D01*
X178829906Y-68488137D01*
X178940220Y-68547102D01*
X179059918Y-68583412D01*
X179184400Y-68595672D01*
X180784400Y-68595672D01*
X180908882Y-68583412D01*
X181028580Y-68547102D01*
X181138894Y-68488137D01*
X181235585Y-68408785D01*
X181314937Y-68312094D01*
X181373902Y-68201780D01*
X181389517Y-68150302D01*
X181671303Y-68150302D01*
X181742886Y-68394271D01*
X181998396Y-68515171D01*
X182272584Y-68583900D01*
X182554912Y-68597817D01*
X182834530Y-68556387D01*
X183100692Y-68461203D01*
X183225914Y-68394271D01*
X183235265Y-68362400D01*
X188860328Y-68362400D01*
X188872588Y-68486882D01*
X188908898Y-68606580D01*
X188967863Y-68716894D01*
X189047215Y-68813585D01*
X189143906Y-68892937D01*
X189254220Y-68951902D01*
X189373918Y-68988212D01*
X189498400Y-69000472D01*
X190112650Y-68997400D01*
X190271400Y-68838650D01*
X190271400Y-67589400D01*
X190525400Y-67589400D01*
X190525400Y-68838650D01*
X190684150Y-68997400D01*
X191298400Y-69000472D01*
X191422882Y-68988212D01*
X191542580Y-68951902D01*
X191652894Y-68892937D01*
X191749585Y-68813585D01*
X191828937Y-68716894D01*
X191887902Y-68606580D01*
X191924212Y-68486882D01*
X191936472Y-68362400D01*
X191933400Y-67748150D01*
X191774650Y-67589400D01*
X190525400Y-67589400D01*
X190271400Y-67589400D01*
X189022150Y-67589400D01*
X188863400Y-67748150D01*
X188860328Y-68362400D01*
X183235265Y-68362400D01*
X183297497Y-68150302D01*
X182484400Y-67337205D01*
X181671303Y-68150302D01*
X181389517Y-68150302D01*
X181410212Y-68082082D01*
X181422472Y-67957600D01*
X181422472Y-67950385D01*
X181491698Y-67970697D01*
X182304795Y-67157600D01*
X182664005Y-67157600D01*
X183477102Y-67970697D01*
X183721071Y-67899114D01*
X183841971Y-67643604D01*
X183910700Y-67369416D01*
X183924617Y-67087088D01*
X183883187Y-66807470D01*
X183795546Y-66562400D01*
X188860328Y-66562400D01*
X188863400Y-67176650D01*
X189022150Y-67335400D01*
X190271400Y-67335400D01*
X190271400Y-67315400D01*
X190525400Y-67315400D01*
X190525400Y-67335400D01*
X191774650Y-67335400D01*
X191933400Y-67176650D01*
X191936472Y-66562400D01*
X191924212Y-66437918D01*
X191887902Y-66318220D01*
X191828937Y-66207906D01*
X191749585Y-66111215D01*
X191652894Y-66031863D01*
X191542580Y-65972898D01*
X191524273Y-65967344D01*
X191590712Y-65900905D01*
X191758699Y-65649495D01*
X191874411Y-65370143D01*
X191933400Y-65073584D01*
X191933400Y-64771216D01*
X191874411Y-64474657D01*
X191758699Y-64195305D01*
X191590712Y-63943895D01*
X191376905Y-63730088D01*
X191125495Y-63562101D01*
X190846143Y-63446389D01*
X190549584Y-63387400D01*
X190247216Y-63387400D01*
X189950657Y-63446389D01*
X189671305Y-63562101D01*
X189419895Y-63730088D01*
X189206088Y-63943895D01*
X189038101Y-64195305D01*
X188922389Y-64474657D01*
X188863400Y-64771216D01*
X188863400Y-65073584D01*
X188922389Y-65370143D01*
X189038101Y-65649495D01*
X189206088Y-65900905D01*
X189272527Y-65967344D01*
X189254220Y-65972898D01*
X189143906Y-66031863D01*
X189047215Y-66111215D01*
X188967863Y-66207906D01*
X188908898Y-66318220D01*
X188872588Y-66437918D01*
X188860328Y-66562400D01*
X183795546Y-66562400D01*
X183788003Y-66541308D01*
X183721071Y-66416086D01*
X183477102Y-66344503D01*
X182664005Y-67157600D01*
X182304795Y-67157600D01*
X181491698Y-66344503D01*
X181422472Y-66364815D01*
X181422472Y-66357600D01*
X181410212Y-66233118D01*
X181389518Y-66164898D01*
X181671303Y-66164898D01*
X182484400Y-66977995D01*
X183297497Y-66164898D01*
X183225914Y-65920929D01*
X182970404Y-65800029D01*
X182696216Y-65731300D01*
X182413888Y-65717383D01*
X182134270Y-65758813D01*
X181868108Y-65853997D01*
X181742886Y-65920929D01*
X181671303Y-66164898D01*
X181389518Y-66164898D01*
X181373902Y-66113420D01*
X181314937Y-66003106D01*
X181235585Y-65906415D01*
X181138894Y-65827063D01*
X181028580Y-65768098D01*
X180908882Y-65731788D01*
X180784400Y-65719528D01*
X179184400Y-65719528D01*
X179059918Y-65731788D01*
X178940220Y-65768098D01*
X178829906Y-65827063D01*
X178733215Y-65906415D01*
X178653863Y-66003106D01*
X178594898Y-66113420D01*
X178558588Y-66233118D01*
X178546328Y-66357600D01*
X178238900Y-66357600D01*
X178238900Y-48904086D01*
X178249126Y-48879398D01*
X178288900Y-48679439D01*
X178288900Y-48475561D01*
X178249126Y-48275602D01*
X178171105Y-48087244D01*
X178057837Y-47917726D01*
X177913674Y-47773563D01*
X177744156Y-47660295D01*
X177555798Y-47582274D01*
X177355839Y-47542500D01*
X177151961Y-47542500D01*
X176952002Y-47582274D01*
X176911000Y-47599258D01*
X176911000Y-45352991D01*
X178250819Y-45352991D01*
X178348143Y-45627352D01*
X178497122Y-45877455D01*
X178692031Y-46093688D01*
X178925380Y-46267741D01*
X179188201Y-46392925D01*
X179335410Y-46437576D01*
X179565300Y-46316255D01*
X179565300Y-45123100D01*
X179819300Y-45123100D01*
X179819300Y-46316255D01*
X180049190Y-46437576D01*
X180196399Y-46392925D01*
X180459220Y-46267741D01*
X180692569Y-46093688D01*
X180887478Y-45877455D01*
X180962300Y-45751845D01*
X181037122Y-45877455D01*
X181232031Y-46093688D01*
X181465380Y-46267741D01*
X181728201Y-46392925D01*
X181875410Y-46437576D01*
X182105300Y-46316255D01*
X182105300Y-45123100D01*
X182359300Y-45123100D01*
X182359300Y-46316255D01*
X182589190Y-46437576D01*
X182736399Y-46392925D01*
X182999220Y-46267741D01*
X183232569Y-46093688D01*
X183427478Y-45877455D01*
X183502300Y-45751845D01*
X183577122Y-45877455D01*
X183772031Y-46093688D01*
X184005380Y-46267741D01*
X184268201Y-46392925D01*
X184415410Y-46437576D01*
X184645300Y-46316255D01*
X184645300Y-45123100D01*
X184899300Y-45123100D01*
X184899300Y-46316255D01*
X185129190Y-46437576D01*
X185276399Y-46392925D01*
X185539220Y-46267741D01*
X185772569Y-46093688D01*
X185967478Y-45877455D01*
X186042300Y-45751845D01*
X186117122Y-45877455D01*
X186312031Y-46093688D01*
X186545380Y-46267741D01*
X186808201Y-46392925D01*
X186955410Y-46437576D01*
X187185300Y-46316255D01*
X187185300Y-45123100D01*
X187439300Y-45123100D01*
X187439300Y-46316255D01*
X187669190Y-46437576D01*
X187816399Y-46392925D01*
X188079220Y-46267741D01*
X188312569Y-46093688D01*
X188507478Y-45877455D01*
X188656457Y-45627352D01*
X188753781Y-45352991D01*
X188633114Y-45123100D01*
X187439300Y-45123100D01*
X187185300Y-45123100D01*
X184899300Y-45123100D01*
X184645300Y-45123100D01*
X182359300Y-45123100D01*
X182105300Y-45123100D01*
X179819300Y-45123100D01*
X179565300Y-45123100D01*
X178371486Y-45123100D01*
X178250819Y-45352991D01*
X176911000Y-45352991D01*
X176911000Y-42309840D01*
X178207300Y-42309840D01*
X178207300Y-42602360D01*
X178264368Y-42889258D01*
X178376310Y-43159511D01*
X178538825Y-43402732D01*
X178745668Y-43609575D01*
X178921706Y-43727200D01*
X178692031Y-43898512D01*
X178497122Y-44114745D01*
X178348143Y-44364848D01*
X178250819Y-44639209D01*
X178371486Y-44869100D01*
X179565300Y-44869100D01*
X179565300Y-44849100D01*
X179819300Y-44849100D01*
X179819300Y-44869100D01*
X182105300Y-44869100D01*
X182105300Y-44849100D01*
X182359300Y-44849100D01*
X182359300Y-44869100D01*
X184645300Y-44869100D01*
X184645300Y-44849100D01*
X184899300Y-44849100D01*
X184899300Y-44869100D01*
X187185300Y-44869100D01*
X187185300Y-44849100D01*
X187439300Y-44849100D01*
X187439300Y-44869100D01*
X188633114Y-44869100D01*
X188753781Y-44639209D01*
X188656457Y-44364848D01*
X188507478Y-44114745D01*
X188330674Y-43918598D01*
X188406480Y-43895602D01*
X188516794Y-43836637D01*
X188613485Y-43757285D01*
X188692837Y-43660594D01*
X188751802Y-43550280D01*
X188788112Y-43430582D01*
X188800372Y-43306100D01*
X188800372Y-41606100D01*
X188788112Y-41481618D01*
X188751802Y-41361920D01*
X188692837Y-41251606D01*
X188613485Y-41154915D01*
X188516794Y-41075563D01*
X188406480Y-41016598D01*
X188286782Y-40980288D01*
X188162300Y-40968028D01*
X186462300Y-40968028D01*
X186337818Y-40980288D01*
X186218120Y-41016598D01*
X186107806Y-41075563D01*
X186011115Y-41154915D01*
X185931763Y-41251606D01*
X185872798Y-41361920D01*
X185850787Y-41434480D01*
X185718932Y-41302625D01*
X185475711Y-41140110D01*
X185205458Y-41028168D01*
X184918560Y-40971100D01*
X184626040Y-40971100D01*
X184339142Y-41028168D01*
X184068889Y-41140110D01*
X183825668Y-41302625D01*
X183618825Y-41509468D01*
X183502300Y-41683860D01*
X183385775Y-41509468D01*
X183178932Y-41302625D01*
X182935711Y-41140110D01*
X182665458Y-41028168D01*
X182378560Y-40971100D01*
X182086040Y-40971100D01*
X181799142Y-41028168D01*
X181528889Y-41140110D01*
X181285668Y-41302625D01*
X181078825Y-41509468D01*
X180962300Y-41683860D01*
X180845775Y-41509468D01*
X180638932Y-41302625D01*
X180395711Y-41140110D01*
X180125458Y-41028168D01*
X179838560Y-40971100D01*
X179546040Y-40971100D01*
X179259142Y-41028168D01*
X178988889Y-41140110D01*
X178745668Y-41302625D01*
X178538825Y-41509468D01*
X178376310Y-41752689D01*
X178264368Y-42022942D01*
X178207300Y-42309840D01*
X176911000Y-42309840D01*
X176911000Y-40855500D01*
X190414705Y-40855500D01*
X190366715Y-40875378D01*
G37*
X190366715Y-40875378D02*
X190008844Y-41114500D01*
X189704500Y-41418844D01*
X189465378Y-41776715D01*
X189300669Y-42174359D01*
X189216700Y-42596496D01*
X189216700Y-43026904D01*
X189300669Y-43449041D01*
X189465378Y-43846685D01*
X189704500Y-44204556D01*
X190008844Y-44508900D01*
X190366715Y-44748022D01*
X190764359Y-44912731D01*
X191186496Y-44996700D01*
X191616904Y-44996700D01*
X192039041Y-44912731D01*
X192436685Y-44748022D01*
X192794556Y-44508900D01*
X193098900Y-44204556D01*
X193338022Y-43846685D01*
X193502731Y-43449041D01*
X193586700Y-43026904D01*
X193586700Y-42596496D01*
X193502731Y-42174359D01*
X193338022Y-41776715D01*
X193098900Y-41418844D01*
X192794556Y-41114500D01*
X192436685Y-40875378D01*
X192388695Y-40855500D01*
X193751600Y-40855500D01*
X193751601Y-73774196D01*
X193722980Y-73758898D01*
X193603282Y-73722588D01*
X193478800Y-73710328D01*
X192264550Y-73713400D01*
X192105800Y-73872150D01*
X192105800Y-75971400D01*
X192125800Y-75971400D01*
X192125800Y-76225400D01*
X192105800Y-76225400D01*
X192105800Y-78324650D01*
X192264550Y-78483400D01*
X193478800Y-78486472D01*
X193603282Y-78474212D01*
X193722980Y-78437902D01*
X193751601Y-78422604D01*
X193751601Y-89573500D01*
X176911000Y-89573500D01*
X176911000Y-88291691D01*
X178250819Y-88291691D01*
X178348143Y-88566052D01*
X178497122Y-88816155D01*
X178692031Y-89032388D01*
X178925380Y-89206441D01*
X179188201Y-89331625D01*
X179335410Y-89376276D01*
X179565300Y-89254955D01*
X179565300Y-88061800D01*
X179819300Y-88061800D01*
X179819300Y-89254955D01*
X180049190Y-89376276D01*
X180196399Y-89331625D01*
X180459220Y-89206441D01*
X180692569Y-89032388D01*
X180887478Y-88816155D01*
X180962300Y-88690545D01*
X181037122Y-88816155D01*
X181232031Y-89032388D01*
X181465380Y-89206441D01*
X181728201Y-89331625D01*
X181875410Y-89376276D01*
X182105300Y-89254955D01*
X182105300Y-88061800D01*
X182359300Y-88061800D01*
X182359300Y-89254955D01*
X182589190Y-89376276D01*
X182736399Y-89331625D01*
X182999220Y-89206441D01*
X183232569Y-89032388D01*
X183427478Y-88816155D01*
X183502300Y-88690545D01*
X183577122Y-88816155D01*
X183772031Y-89032388D01*
X184005380Y-89206441D01*
X184268201Y-89331625D01*
X184415410Y-89376276D01*
X184645300Y-89254955D01*
X184645300Y-88061800D01*
X184899300Y-88061800D01*
X184899300Y-89254955D01*
X185129190Y-89376276D01*
X185276399Y-89331625D01*
X185539220Y-89206441D01*
X185772569Y-89032388D01*
X185967478Y-88816155D01*
X186042300Y-88690545D01*
X186117122Y-88816155D01*
X186312031Y-89032388D01*
X186545380Y-89206441D01*
X186808201Y-89331625D01*
X186955410Y-89376276D01*
X187185300Y-89254955D01*
X187185300Y-88061800D01*
X187439300Y-88061800D01*
X187439300Y-89254955D01*
X187669190Y-89376276D01*
X187816399Y-89331625D01*
X188079220Y-89206441D01*
X188312569Y-89032388D01*
X188507478Y-88816155D01*
X188656457Y-88566052D01*
X188753781Y-88291691D01*
X188633114Y-88061800D01*
X187439300Y-88061800D01*
X187185300Y-88061800D01*
X184899300Y-88061800D01*
X184645300Y-88061800D01*
X182359300Y-88061800D01*
X182105300Y-88061800D01*
X179819300Y-88061800D01*
X179565300Y-88061800D01*
X178371486Y-88061800D01*
X178250819Y-88291691D01*
X176911000Y-88291691D01*
X176911000Y-84006500D01*
X178207300Y-85302800D01*
X178207300Y-85541060D01*
X178264368Y-85827958D01*
X178376310Y-86098211D01*
X178538825Y-86341432D01*
X178745668Y-86548275D01*
X178921706Y-86665900D01*
X178692031Y-86837212D01*
X178497122Y-87053445D01*
X178348143Y-87303548D01*
X178250819Y-87577909D01*
X178371486Y-87807800D01*
X179565300Y-87807800D01*
X179565300Y-87787800D01*
X179819300Y-87787800D01*
X179819300Y-87807800D01*
X182105300Y-87807800D01*
X182105300Y-87787800D01*
X182359300Y-87787800D01*
X182359300Y-87807800D01*
X184645300Y-87807800D01*
X184645300Y-87787800D01*
X184899300Y-87787800D01*
X184899300Y-87807800D01*
X187185300Y-87807800D01*
X187185300Y-87787800D01*
X187439300Y-87787800D01*
X187439300Y-87807800D01*
X188633114Y-87807800D01*
X188753781Y-87577909D01*
X188656457Y-87303548D01*
X188563859Y-87148096D01*
X189216700Y-87148096D01*
X189216700Y-87578504D01*
X189300669Y-88000641D01*
X189465378Y-88398285D01*
X189704500Y-88756156D01*
X190008844Y-89060500D01*
X190366715Y-89299622D01*
X190764359Y-89464331D01*
X191186496Y-89548300D01*
X191616904Y-89548300D01*
X192039041Y-89464331D01*
X192436685Y-89299622D01*
X192794556Y-89060500D01*
X193098900Y-88756156D01*
X193338022Y-88398285D01*
X193502731Y-88000641D01*
X193586700Y-87578504D01*
X193586700Y-87148096D01*
X193502731Y-86725959D01*
X193338022Y-86328315D01*
X193098900Y-85970444D01*
X192794556Y-85666100D01*
X192436685Y-85426978D01*
X192039041Y-85262269D01*
X191616904Y-85178300D01*
X191186496Y-85178300D01*
X190764359Y-85262269D01*
X190366715Y-85426978D01*
X190008844Y-85666100D01*
X189704500Y-85970444D01*
X189465378Y-86328315D01*
X189300669Y-86725959D01*
X189216700Y-87148096D01*
X188563859Y-87148096D01*
X188507478Y-87053445D01*
X188330674Y-86857298D01*
X188406480Y-86834302D01*
X188516794Y-86775337D01*
X188613485Y-86695985D01*
X188692837Y-86599294D01*
X188751802Y-86488980D01*
X188788112Y-86369282D01*
X188800372Y-86244800D01*
X188800372Y-84544800D01*
X188788112Y-84420318D01*
X188751802Y-84300620D01*
X188692837Y-84190306D01*
X188613485Y-84093615D01*
X188516794Y-84014263D01*
X188406480Y-83955298D01*
X188286782Y-83918988D01*
X188162300Y-83906728D01*
X186462300Y-83906728D01*
X186337818Y-83918988D01*
X186218120Y-83955298D01*
X186107806Y-84014263D01*
X186011115Y-84093615D01*
X185931763Y-84190306D01*
X185872798Y-84300620D01*
X185850787Y-84373180D01*
X185718932Y-84241325D01*
X185475711Y-84078810D01*
X185205458Y-83966868D01*
X184918560Y-83909800D01*
X184626040Y-83909800D01*
X184339142Y-83966868D01*
X184068889Y-84078810D01*
X183825668Y-84241325D01*
X183618825Y-84448168D01*
X183502300Y-84622560D01*
X183385775Y-84448168D01*
X183178932Y-84241325D01*
X182935711Y-84078810D01*
X182665458Y-83966868D01*
X182378560Y-83909800D01*
X182086040Y-83909800D01*
X181799142Y-83966868D01*
X181528889Y-84078810D01*
X181285668Y-84241325D01*
X181078825Y-84448168D01*
X180962300Y-84622560D01*
X180845775Y-84448168D01*
X180638932Y-84241325D01*
X180395711Y-84078810D01*
X180125458Y-83966868D01*
X179838560Y-83909800D01*
X179600300Y-83909800D01*
X178238900Y-82548400D01*
X178238900Y-74348400D01*
X183590728Y-74348400D01*
X183590728Y-77848400D01*
X183602988Y-77972882D01*
X183639298Y-78092580D01*
X183698263Y-78202894D01*
X183777615Y-78299585D01*
X183874306Y-78378937D01*
X183984620Y-78437902D01*
X184104318Y-78474212D01*
X184228800Y-78486472D01*
X187728800Y-78486472D01*
X187853282Y-78474212D01*
X187972980Y-78437902D01*
X188083294Y-78378937D01*
X188179985Y-78299585D01*
X188259337Y-78202894D01*
X188318302Y-78092580D01*
X188354612Y-77972882D01*
X188366872Y-77848400D01*
X189840728Y-77848400D01*
X189852988Y-77972882D01*
X189889298Y-78092580D01*
X189948263Y-78202894D01*
X190027615Y-78299585D01*
X190124306Y-78378937D01*
X190234620Y-78437902D01*
X190354318Y-78474212D01*
X190478800Y-78486472D01*
X191693050Y-78483400D01*
X191851800Y-78324650D01*
X191851800Y-76225400D01*
X190002550Y-76225400D01*
X189843800Y-76384150D01*
X189840728Y-77848400D01*
X188366872Y-77848400D01*
X188366872Y-74348400D01*
X189840728Y-74348400D01*
X189843800Y-75812650D01*
X190002550Y-75971400D01*
X191851800Y-75971400D01*
X191851800Y-73872150D01*
X191693050Y-73713400D01*
X190478800Y-73710328D01*
X190354318Y-73722588D01*
X190234620Y-73758898D01*
X190124306Y-73817863D01*
X190027615Y-73897215D01*
X189948263Y-73993906D01*
X189889298Y-74104220D01*
X189852988Y-74223918D01*
X189840728Y-74348400D01*
X188366872Y-74348400D01*
X188354612Y-74223918D01*
X188318302Y-74104220D01*
X188259337Y-73993906D01*
X188179985Y-73897215D01*
X188083294Y-73817863D01*
X188006669Y-73776906D01*
X188103800Y-73786472D01*
X189853800Y-73786472D01*
X190148986Y-73757399D01*
X190432828Y-73671296D01*
X190694418Y-73531473D01*
X190923703Y-73343303D01*
X191111873Y-73114018D01*
X191251696Y-72852428D01*
X191337799Y-72568586D01*
X191366872Y-72273400D01*
X191366872Y-70523400D01*
X191337799Y-70228214D01*
X191251696Y-69944372D01*
X191111873Y-69682782D01*
X190923703Y-69453497D01*
X190694418Y-69265327D01*
X190432828Y-69125504D01*
X190148986Y-69039401D01*
X189853800Y-69010328D01*
X188103800Y-69010328D01*
X187808614Y-69039401D01*
X187524772Y-69125504D01*
X187263182Y-69265327D01*
X187033897Y-69453497D01*
X186845727Y-69682782D01*
X186705904Y-69944372D01*
X186619801Y-70228214D01*
X186590728Y-70523400D01*
X186590728Y-72273400D01*
X186619801Y-72568586D01*
X186705904Y-72852428D01*
X186845727Y-73114018D01*
X187033897Y-73343303D01*
X187263182Y-73531473D01*
X187524772Y-73671296D01*
X187653443Y-73710328D01*
X184228800Y-73710328D01*
X184104318Y-73722588D01*
X183984620Y-73758898D01*
X183874306Y-73817863D01*
X183777615Y-73897215D01*
X183698263Y-73993906D01*
X183639298Y-74104220D01*
X183602988Y-74223918D01*
X183590728Y-74348400D01*
X178238900Y-74348400D01*
X178238900Y-66357600D01*
X178546328Y-66357600D01*
X178546328Y-67957600D01*
X178558588Y-68082082D01*
X178594898Y-68201780D01*
X178653863Y-68312094D01*
X178733215Y-68408785D01*
X178829906Y-68488137D01*
X178940220Y-68547102D01*
X179059918Y-68583412D01*
X179184400Y-68595672D01*
X180784400Y-68595672D01*
X180908882Y-68583412D01*
X181028580Y-68547102D01*
X181138894Y-68488137D01*
X181235585Y-68408785D01*
X181314937Y-68312094D01*
X181373902Y-68201780D01*
X181389517Y-68150302D01*
X181671303Y-68150302D01*
X181742886Y-68394271D01*
X181998396Y-68515171D01*
X182272584Y-68583900D01*
X182554912Y-68597817D01*
X182834530Y-68556387D01*
X183100692Y-68461203D01*
X183225914Y-68394271D01*
X183235265Y-68362400D01*
X188860328Y-68362400D01*
X188872588Y-68486882D01*
X188908898Y-68606580D01*
X188967863Y-68716894D01*
X189047215Y-68813585D01*
X189143906Y-68892937D01*
X189254220Y-68951902D01*
X189373918Y-68988212D01*
X189498400Y-69000472D01*
X190112650Y-68997400D01*
X190271400Y-68838650D01*
X190271400Y-67589400D01*
X190525400Y-67589400D01*
X190525400Y-68838650D01*
X190684150Y-68997400D01*
X191298400Y-69000472D01*
X191422882Y-68988212D01*
X191542580Y-68951902D01*
X191652894Y-68892937D01*
X191749585Y-68813585D01*
X191828937Y-68716894D01*
X191887902Y-68606580D01*
X191924212Y-68486882D01*
X191936472Y-68362400D01*
X191933400Y-67748150D01*
X191774650Y-67589400D01*
X190525400Y-67589400D01*
X190271400Y-67589400D01*
X189022150Y-67589400D01*
X188863400Y-67748150D01*
X188860328Y-68362400D01*
X183235265Y-68362400D01*
X183297497Y-68150302D01*
X182484400Y-67337205D01*
X181671303Y-68150302D01*
X181389517Y-68150302D01*
X181410212Y-68082082D01*
X181422472Y-67957600D01*
X181422472Y-67950385D01*
X181491698Y-67970697D01*
X182304795Y-67157600D01*
X182664005Y-67157600D01*
X183477102Y-67970697D01*
X183721071Y-67899114D01*
X183841971Y-67643604D01*
X183910700Y-67369416D01*
X183924617Y-67087088D01*
X183883187Y-66807470D01*
X183795546Y-66562400D01*
X188860328Y-66562400D01*
X188863400Y-67176650D01*
X189022150Y-67335400D01*
X190271400Y-67335400D01*
X190271400Y-67315400D01*
X190525400Y-67315400D01*
X190525400Y-67335400D01*
X191774650Y-67335400D01*
X191933400Y-67176650D01*
X191936472Y-66562400D01*
X191924212Y-66437918D01*
X191887902Y-66318220D01*
X191828937Y-66207906D01*
X191749585Y-66111215D01*
X191652894Y-66031863D01*
X191542580Y-65972898D01*
X191524273Y-65967344D01*
X191590712Y-65900905D01*
X191758699Y-65649495D01*
X191874411Y-65370143D01*
X191933400Y-65073584D01*
X191933400Y-64771216D01*
X191874411Y-64474657D01*
X191758699Y-64195305D01*
X191590712Y-63943895D01*
X191376905Y-63730088D01*
X191125495Y-63562101D01*
X190846143Y-63446389D01*
X190549584Y-63387400D01*
X190247216Y-63387400D01*
X189950657Y-63446389D01*
X189671305Y-63562101D01*
X189419895Y-63730088D01*
X189206088Y-63943895D01*
X189038101Y-64195305D01*
X188922389Y-64474657D01*
X188863400Y-64771216D01*
X188863400Y-65073584D01*
X188922389Y-65370143D01*
X189038101Y-65649495D01*
X189206088Y-65900905D01*
X189272527Y-65967344D01*
X189254220Y-65972898D01*
X189143906Y-66031863D01*
X189047215Y-66111215D01*
X188967863Y-66207906D01*
X188908898Y-66318220D01*
X188872588Y-66437918D01*
X188860328Y-66562400D01*
X183795546Y-66562400D01*
X183788003Y-66541308D01*
X183721071Y-66416086D01*
X183477102Y-66344503D01*
X182664005Y-67157600D01*
X182304795Y-67157600D01*
X181491698Y-66344503D01*
X181422472Y-66364815D01*
X181422472Y-66357600D01*
X181410212Y-66233118D01*
X181389518Y-66164898D01*
X181671303Y-66164898D01*
X182484400Y-66977995D01*
X183297497Y-66164898D01*
X183225914Y-65920929D01*
X182970404Y-65800029D01*
X182696216Y-65731300D01*
X182413888Y-65717383D01*
X182134270Y-65758813D01*
X181868108Y-65853997D01*
X181742886Y-65920929D01*
X181671303Y-66164898D01*
X181389518Y-66164898D01*
X181373902Y-66113420D01*
X181314937Y-66003106D01*
X181235585Y-65906415D01*
X181138894Y-65827063D01*
X181028580Y-65768098D01*
X180908882Y-65731788D01*
X180784400Y-65719528D01*
X179184400Y-65719528D01*
X179059918Y-65731788D01*
X178940220Y-65768098D01*
X178829906Y-65827063D01*
X178733215Y-65906415D01*
X178653863Y-66003106D01*
X178594898Y-66113420D01*
X178558588Y-66233118D01*
X178546328Y-66357600D01*
X178238900Y-66357600D01*
X178238900Y-48904086D01*
X178249126Y-48879398D01*
X178288900Y-48679439D01*
X178288900Y-48475561D01*
X178249126Y-48275602D01*
X178171105Y-48087244D01*
X178057837Y-47917726D01*
X177913674Y-47773563D01*
X177744156Y-47660295D01*
X177555798Y-47582274D01*
X177355839Y-47542500D01*
X177151961Y-47542500D01*
X176952002Y-47582274D01*
X176911000Y-47599258D01*
X176911000Y-45352991D01*
X178250819Y-45352991D01*
X178348143Y-45627352D01*
X178497122Y-45877455D01*
X178692031Y-46093688D01*
X178925380Y-46267741D01*
X179188201Y-46392925D01*
X179335410Y-46437576D01*
X179565300Y-46316255D01*
X179565300Y-45123100D01*
X179819300Y-45123100D01*
X179819300Y-46316255D01*
X180049190Y-46437576D01*
X180196399Y-46392925D01*
X180459220Y-46267741D01*
X180692569Y-46093688D01*
X180887478Y-45877455D01*
X180962300Y-45751845D01*
X181037122Y-45877455D01*
X181232031Y-46093688D01*
X181465380Y-46267741D01*
X181728201Y-46392925D01*
X181875410Y-46437576D01*
X182105300Y-46316255D01*
X182105300Y-45123100D01*
X182359300Y-45123100D01*
X182359300Y-46316255D01*
X182589190Y-46437576D01*
X182736399Y-46392925D01*
X182999220Y-46267741D01*
X183232569Y-46093688D01*
X183427478Y-45877455D01*
X183502300Y-45751845D01*
X183577122Y-45877455D01*
X183772031Y-46093688D01*
X184005380Y-46267741D01*
X184268201Y-46392925D01*
X184415410Y-46437576D01*
X184645300Y-46316255D01*
X184645300Y-45123100D01*
X184899300Y-45123100D01*
X184899300Y-46316255D01*
X185129190Y-46437576D01*
X185276399Y-46392925D01*
X185539220Y-46267741D01*
X185772569Y-46093688D01*
X185967478Y-45877455D01*
X186042300Y-45751845D01*
X186117122Y-45877455D01*
X186312031Y-46093688D01*
X186545380Y-46267741D01*
X186808201Y-46392925D01*
X186955410Y-46437576D01*
X187185300Y-46316255D01*
X187185300Y-45123100D01*
X187439300Y-45123100D01*
X187439300Y-46316255D01*
X187669190Y-46437576D01*
X187816399Y-46392925D01*
X188079220Y-46267741D01*
X188312569Y-46093688D01*
X188507478Y-45877455D01*
X188656457Y-45627352D01*
X188753781Y-45352991D01*
X188633114Y-45123100D01*
X187439300Y-45123100D01*
X187185300Y-45123100D01*
X184899300Y-45123100D01*
X184645300Y-45123100D01*
X182359300Y-45123100D01*
X182105300Y-45123100D01*
X179819300Y-45123100D01*
X179565300Y-45123100D01*
X178371486Y-45123100D01*
X178250819Y-45352991D01*
X176911000Y-45352991D01*
X176911000Y-42309840D01*
X178207300Y-42309840D01*
X178207300Y-42602360D01*
X178264368Y-42889258D01*
X178376310Y-43159511D01*
X178538825Y-43402732D01*
X178745668Y-43609575D01*
X178921706Y-43727200D01*
X178692031Y-43898512D01*
X178497122Y-44114745D01*
X178348143Y-44364848D01*
X178250819Y-44639209D01*
X178371486Y-44869100D01*
X179565300Y-44869100D01*
X179565300Y-44849100D01*
X179819300Y-44849100D01*
X179819300Y-44869100D01*
X182105300Y-44869100D01*
X182105300Y-44849100D01*
X182359300Y-44849100D01*
X182359300Y-44869100D01*
X184645300Y-44869100D01*
X184645300Y-44849100D01*
X184899300Y-44849100D01*
X184899300Y-44869100D01*
X187185300Y-44869100D01*
X187185300Y-44849100D01*
X187439300Y-44849100D01*
X187439300Y-44869100D01*
X188633114Y-44869100D01*
X188753781Y-44639209D01*
X188656457Y-44364848D01*
X188507478Y-44114745D01*
X188330674Y-43918598D01*
X188406480Y-43895602D01*
X188516794Y-43836637D01*
X188613485Y-43757285D01*
X188692837Y-43660594D01*
X188751802Y-43550280D01*
X188788112Y-43430582D01*
X188800372Y-43306100D01*
X188800372Y-41606100D01*
X188788112Y-41481618D01*
X188751802Y-41361920D01*
X188692837Y-41251606D01*
X188613485Y-41154915D01*
X188516794Y-41075563D01*
X188406480Y-41016598D01*
X188286782Y-40980288D01*
X188162300Y-40968028D01*
X186462300Y-40968028D01*
X186337818Y-40980288D01*
X186218120Y-41016598D01*
X186107806Y-41075563D01*
X186011115Y-41154915D01*
X185931763Y-41251606D01*
X185872798Y-41361920D01*
X185850787Y-41434480D01*
X185718932Y-41302625D01*
X185475711Y-41140110D01*
X185205458Y-41028168D01*
X184918560Y-40971100D01*
X184626040Y-40971100D01*
X184339142Y-41028168D01*
X184068889Y-41140110D01*
X183825668Y-41302625D01*
X183618825Y-41509468D01*
X183502300Y-41683860D01*
X183385775Y-41509468D01*
X183178932Y-41302625D01*
X182935711Y-41140110D01*
X182665458Y-41028168D01*
X182378560Y-40971100D01*
X182086040Y-40971100D01*
X181799142Y-41028168D01*
X181528889Y-41140110D01*
X181285668Y-41302625D01*
X181078825Y-41509468D01*
X180962300Y-41683860D01*
X180845775Y-41509468D01*
X180638932Y-41302625D01*
X180395711Y-41140110D01*
X180125458Y-41028168D01*
X179838560Y-40971100D01*
X179546040Y-40971100D01*
X179259142Y-41028168D01*
X178988889Y-41140110D01*
X178745668Y-41302625D01*
X178538825Y-41509468D01*
X178376310Y-41752689D01*
X178264368Y-42022942D01*
X178207300Y-42309840D01*
X176911000Y-42309840D01*
X176911000Y-40855500D01*
X190414705Y-40855500D01*
X190366715Y-40875378D01*
M02*
