M48
; DRILL file {KiCad (5.1.6)-1} date 06/02/20 23:24:24
; FORMAT={-:-/ absolute / metric / decimal}
; #@! TF.CreationDate,2020-06-02T23:24:24+04:00
; #@! TF.GenerationSoftware,Kicad,Pcbnew,(5.1.6)-1
; #@! TF.FileFunction,Plated,1,2,PTH
FMAT,2
METRIC
T1C0.400
T2C0.800
T3C0.900
T4C1.000
T5C3.000
%
G90
G05
T1
X177.254Y-48.578
X183.261Y-54.737
T2
X179.984Y-67.158
X182.484Y-67.158
T3
X190.398Y-64.922
X190.398Y-67.462
T4
X123.698Y-48.704
X123.698Y-51.244
X123.698Y-53.784
X123.698Y-56.325
X123.698Y-58.864
X123.698Y-61.404
X123.698Y-63.944
X123.698Y-66.484
X123.698Y-69.025
X123.698Y-71.564
X123.698Y-74.105
X123.698Y-76.644
X123.698Y-79.184
X123.698Y-81.724
X118.618Y-48.704
X118.618Y-51.244
X118.618Y-53.784
X118.618Y-56.325
X118.618Y-58.864
X118.618Y-61.404
X118.618Y-63.944
X118.618Y-66.484
X118.618Y-69.025
X118.618Y-71.564
X118.618Y-74.105
X118.618Y-76.644
X118.618Y-79.184
X118.618Y-81.724
X156.718Y-48.704
X156.718Y-51.244
X156.718Y-53.784
X156.718Y-56.325
X156.718Y-58.864
X156.718Y-61.404
X156.718Y-63.944
X156.718Y-66.484
X156.718Y-69.025
X156.718Y-71.564
X156.718Y-74.105
X156.718Y-76.644
X156.718Y-79.184
X156.718Y-81.724
X103.378Y-48.704
X103.378Y-51.244
X103.378Y-53.784
X103.378Y-56.325
X103.378Y-58.864
X103.378Y-61.404
X103.378Y-63.944
X103.378Y-66.484
X103.378Y-69.025
X103.378Y-71.564
X103.378Y-74.105
X103.378Y-76.644
X103.378Y-79.184
X103.378Y-81.724
X179.692Y-85.395
X179.692Y-87.935
X182.232Y-85.395
X182.232Y-87.935
X184.772Y-85.395
X184.772Y-87.935
X187.312Y-85.395
X187.312Y-87.935
X133.858Y-48.704
X133.858Y-51.244
X133.858Y-53.784
X133.858Y-56.325
X133.858Y-58.864
X133.858Y-61.404
X133.858Y-63.944
X133.858Y-66.484
X133.858Y-69.025
X133.858Y-71.564
X133.858Y-74.105
X133.858Y-76.644
X133.858Y-79.184
X133.858Y-81.724
X126.238Y-48.704
X126.238Y-51.244
X126.238Y-53.784
X126.238Y-56.325
X126.238Y-58.864
X126.238Y-61.404
X126.238Y-63.944
X126.238Y-66.484
X126.238Y-69.025
X126.238Y-71.564
X126.238Y-74.105
X126.238Y-76.644
X126.238Y-79.184
X126.238Y-81.724
X144.018Y-48.704
X144.018Y-51.244
X144.018Y-53.784
X144.018Y-56.325
X144.018Y-58.864
X144.018Y-61.404
X144.018Y-63.944
X144.018Y-66.484
X144.018Y-69.025
X144.018Y-71.564
X144.018Y-74.105
X144.018Y-76.644
X144.018Y-79.184
X144.018Y-81.724
X131.318Y-48.704
X131.318Y-51.244
X131.318Y-53.784
X131.318Y-56.325
X131.318Y-58.864
X131.318Y-61.404
X131.318Y-63.944
X131.318Y-66.484
X131.318Y-69.025
X131.318Y-71.564
X131.318Y-74.105
X131.318Y-76.644
X131.318Y-79.184
X131.318Y-81.724
X138.938Y-48.704
X138.938Y-51.244
X138.938Y-53.784
X138.938Y-56.325
X138.938Y-58.864
X138.938Y-61.404
X138.938Y-63.944
X138.938Y-66.484
X138.938Y-69.025
X138.938Y-71.564
X138.938Y-74.105
X138.938Y-76.644
X138.938Y-79.184
X138.938Y-81.724
X146.558Y-48.704
X146.558Y-51.244
X146.558Y-53.784
X146.558Y-56.325
X146.558Y-58.864
X146.558Y-61.404
X146.558Y-63.944
X146.558Y-66.484
X146.558Y-69.025
X146.558Y-71.564
X146.558Y-74.105
X146.558Y-76.644
X146.558Y-79.184
X146.558Y-81.724
X151.638Y-48.704
X151.638Y-51.244
X151.638Y-53.784
X151.638Y-56.325
X151.638Y-58.864
X151.638Y-61.404
X151.638Y-63.944
X151.638Y-66.484
X151.638Y-69.025
X151.638Y-71.564
X151.638Y-74.105
X151.638Y-76.644
X151.638Y-79.184
X151.638Y-81.724
X179.692Y-42.456
X179.692Y-44.996
X182.232Y-42.456
X182.232Y-44.996
X184.772Y-42.456
X184.772Y-44.996
X187.312Y-42.456
X187.312Y-44.996
X110.998Y-48.704
X110.998Y-51.244
X110.998Y-53.784
X110.998Y-56.325
X110.998Y-58.864
X110.998Y-61.404
X110.998Y-63.944
X110.998Y-66.484
X110.998Y-69.025
X110.998Y-71.564
X110.998Y-74.105
X110.998Y-76.644
X110.998Y-79.184
X110.998Y-81.724
X136.398Y-48.704
X136.398Y-51.244
X136.398Y-53.784
X136.398Y-56.325
X136.398Y-58.864
X136.398Y-61.404
X136.398Y-63.944
X136.398Y-66.484
X136.398Y-69.025
X136.398Y-71.564
X136.398Y-74.105
X136.398Y-76.644
X136.398Y-79.184
X136.398Y-81.724
X100.838Y-48.704
X100.838Y-51.244
X100.838Y-53.784
X100.838Y-56.325
X100.838Y-58.864
X100.838Y-61.404
X100.838Y-63.944
X100.838Y-66.484
X100.838Y-69.025
X100.838Y-71.564
X100.838Y-74.105
X100.838Y-76.644
X100.838Y-79.184
X100.838Y-81.724
X141.478Y-48.704
X141.478Y-51.244
X141.478Y-53.784
X141.478Y-56.325
X141.478Y-58.864
X141.478Y-61.404
X141.478Y-63.944
X141.478Y-66.484
X141.478Y-69.025
X141.478Y-71.564
X141.478Y-74.105
X141.478Y-76.644
X141.478Y-79.184
X141.478Y-81.724
X166.878Y-48.704
X166.878Y-51.244
X166.878Y-53.784
X166.878Y-56.325
X166.878Y-58.864
X166.878Y-61.404
X166.878Y-63.944
X166.878Y-66.484
X166.878Y-69.025
X166.878Y-71.564
X166.878Y-74.105
X166.878Y-76.644
X166.878Y-79.184
X166.878Y-81.724
X164.338Y-48.704
X164.338Y-51.244
X164.338Y-53.784
X164.338Y-56.325
X164.338Y-58.864
X164.338Y-61.404
X164.338Y-63.944
X164.338Y-66.484
X164.338Y-69.025
X164.338Y-71.564
X164.338Y-74.105
X164.338Y-76.644
X164.338Y-79.184
X164.338Y-81.724
X116.078Y-48.704
X116.078Y-51.244
X116.078Y-53.784
X116.078Y-56.325
X116.078Y-58.864
X116.078Y-61.404
X116.078Y-63.944
X116.078Y-66.484
X116.078Y-69.025
X116.078Y-71.564
X116.078Y-74.105
X116.078Y-76.644
X116.078Y-79.184
X116.078Y-81.724
X100.838Y-42.481
X100.838Y-45.021
X103.378Y-42.481
X103.378Y-45.021
X105.918Y-42.481
X105.918Y-45.021
X108.458Y-42.481
X108.458Y-45.021
X110.998Y-42.481
X110.998Y-45.021
X113.538Y-42.481
X113.538Y-45.021
X116.078Y-42.481
X116.078Y-45.021
X118.618Y-42.481
X118.618Y-45.021
X121.158Y-42.481
X121.158Y-45.021
X123.698Y-42.481
X123.698Y-45.021
X126.238Y-42.481
X126.238Y-45.021
X128.778Y-42.481
X128.778Y-45.021
X131.318Y-42.481
X131.318Y-45.021
X133.858Y-42.481
X133.858Y-45.021
X136.398Y-42.481
X136.398Y-45.021
X138.938Y-42.481
X138.938Y-45.021
X141.478Y-42.481
X141.478Y-45.021
X144.018Y-42.481
X144.018Y-45.021
X146.558Y-42.481
X146.558Y-45.021
X149.098Y-42.481
X149.098Y-45.021
X151.638Y-42.481
X151.638Y-45.021
X154.178Y-42.481
X154.178Y-45.021
X156.718Y-42.481
X156.718Y-45.021
X159.258Y-42.481
X159.258Y-45.021
X161.798Y-42.481
X161.798Y-45.021
X164.338Y-42.481
X164.338Y-45.021
X166.878Y-42.481
X166.878Y-45.021
X169.418Y-42.481
X169.418Y-45.021
X171.958Y-42.481
X171.958Y-45.021
X174.498Y-42.481
X174.498Y-45.021
X128.778Y-48.704
X128.778Y-51.244
X128.778Y-53.784
X128.778Y-56.325
X128.778Y-58.864
X128.778Y-61.404
X128.778Y-63.944
X128.778Y-66.484
X128.778Y-69.025
X128.778Y-71.564
X128.778Y-74.105
X128.778Y-76.644
X128.778Y-79.184
X128.778Y-81.724
X171.958Y-48.704
X171.958Y-51.244
X171.958Y-53.784
X171.958Y-56.325
X171.958Y-58.864
X171.958Y-61.404
X171.958Y-63.944
X171.958Y-66.484
X171.958Y-69.025
X171.958Y-71.564
X171.958Y-74.105
X171.958Y-76.644
X171.958Y-79.184
X171.958Y-81.724
X154.178Y-48.704
X154.178Y-51.244
X154.178Y-53.784
X154.178Y-56.325
X154.178Y-58.864
X154.178Y-61.404
X154.178Y-63.944
X154.178Y-66.484
X154.178Y-69.025
X154.178Y-71.564
X154.178Y-74.105
X154.178Y-76.644
X154.178Y-79.184
X154.178Y-81.724
X113.538Y-48.704
X113.538Y-51.244
X113.538Y-53.784
X113.538Y-56.325
X113.538Y-58.864
X113.538Y-61.404
X113.538Y-63.944
X113.538Y-66.484
X113.538Y-69.025
X113.538Y-71.564
X113.538Y-74.105
X113.538Y-76.644
X113.538Y-79.184
X113.538Y-81.724
X100.838Y-85.407
X100.838Y-87.947
X103.378Y-85.407
X103.378Y-87.947
X105.918Y-85.407
X105.918Y-87.947
X108.458Y-85.407
X108.458Y-87.947
X110.998Y-85.407
X110.998Y-87.947
X113.538Y-85.407
X113.538Y-87.947
X116.078Y-85.407
X116.078Y-87.947
X118.618Y-85.407
X118.618Y-87.947
X121.158Y-85.407
X121.158Y-87.947
X123.698Y-85.407
X123.698Y-87.947
X126.238Y-85.407
X126.238Y-87.947
X128.778Y-85.407
X128.778Y-87.947
X131.318Y-85.407
X131.318Y-87.947
X133.858Y-85.407
X133.858Y-87.947
X136.398Y-85.407
X136.398Y-87.947
X138.938Y-85.407
X138.938Y-87.947
X141.478Y-85.407
X141.478Y-87.947
X144.018Y-85.407
X144.018Y-87.947
X146.558Y-85.407
X146.558Y-87.947
X149.098Y-85.407
X149.098Y-87.947
X151.638Y-85.407
X151.638Y-87.947
X154.178Y-85.407
X154.178Y-87.947
X156.718Y-85.407
X156.718Y-87.947
X159.258Y-85.407
X159.258Y-87.947
X161.798Y-85.407
X161.798Y-87.947
X164.338Y-85.407
X164.338Y-87.947
X166.878Y-85.407
X166.878Y-87.947
X169.418Y-85.407
X169.418Y-87.947
X171.958Y-85.407
X171.958Y-87.947
X174.498Y-85.407
X174.498Y-87.947
X105.918Y-48.704
X105.918Y-51.244
X105.918Y-53.784
X105.918Y-56.325
X105.918Y-58.864
X105.918Y-61.404
X105.918Y-63.944
X105.918Y-66.484
X105.918Y-69.025
X105.918Y-71.564
X105.918Y-74.105
X105.918Y-76.644
X105.918Y-79.184
X105.918Y-81.724
X161.798Y-48.704
X161.798Y-51.244
X161.798Y-53.784
X161.798Y-56.325
X161.798Y-58.864
X161.798Y-61.404
X161.798Y-63.944
X161.798Y-66.484
X161.798Y-69.025
X161.798Y-71.564
X161.798Y-74.105
X161.798Y-76.644
X161.798Y-79.184
X161.798Y-81.724
X149.098Y-48.704
X149.098Y-51.244
X149.098Y-53.784
X149.098Y-56.325
X149.098Y-58.864
X149.098Y-61.404
X149.098Y-63.944
X149.098Y-66.484
X149.098Y-69.025
X149.098Y-71.564
X149.098Y-74.105
X149.098Y-76.644
X149.098Y-79.184
X149.098Y-81.724
X169.418Y-48.704
X169.418Y-51.244
X169.418Y-53.784
X169.418Y-56.325
X169.418Y-58.864
X169.418Y-61.404
X169.418Y-63.944
X169.418Y-66.484
X169.418Y-69.025
X169.418Y-71.564
X169.418Y-74.105
X169.418Y-76.644
X169.418Y-79.184
X169.418Y-81.724
X121.158Y-48.704
X121.158Y-51.244
X121.158Y-53.784
X121.158Y-56.325
X121.158Y-58.864
X121.158Y-61.404
X121.158Y-63.944
X121.158Y-66.484
X121.158Y-69.025
X121.158Y-71.564
X121.158Y-74.105
X121.158Y-76.644
X121.158Y-79.184
X121.158Y-81.724
X108.458Y-48.704
X108.458Y-51.244
X108.458Y-53.784
X108.458Y-56.325
X108.458Y-58.864
X108.458Y-61.404
X108.458Y-63.944
X108.458Y-66.484
X108.458Y-69.025
X108.458Y-71.564
X108.458Y-74.105
X108.458Y-76.644
X108.458Y-79.184
X108.458Y-81.724
X174.498Y-48.704
X174.498Y-51.244
X174.498Y-53.784
X174.498Y-56.325
X174.498Y-58.864
X174.498Y-61.404
X174.498Y-63.944
X174.498Y-66.484
X174.498Y-69.025
X174.498Y-71.564
X174.498Y-74.105
X174.498Y-76.644
X174.498Y-79.184
X174.498Y-81.724
X159.258Y-48.704
X159.258Y-51.244
X159.258Y-53.784
X159.258Y-56.325
X159.258Y-58.864
X159.258Y-61.404
X159.258Y-63.944
X159.258Y-66.484
X159.258Y-69.025
X159.258Y-71.564
X159.258Y-74.105
X159.258Y-76.644
X159.258Y-79.184
X159.258Y-81.724
T5
X96.647Y-42.799
X96.66Y-87.414
X191.402Y-42.812
X191.402Y-87.363
T4
G00X185.979Y-77.098
M15
G01X185.979Y-75.098
M16
G05
G00X189.979Y-71.398
M15
G01X187.979Y-71.398
M16
G05
G00X191.979Y-77.098
M15
G01X191.979Y-75.098
M16
G05
T0
M30
